retro16.sfdir
StartChar: uni0000
Encoding: 0 0 94
Width: 448
Flags: W
HStem: 0 128<128 192> 320 64<192 292.906> 576 64<0 294>
VStem: 128 64<0 128 192 320> 320 64<409.895 550.371>
LayerCount: 2
Fore
SplineSet
128 0 m 1,0,-1
 128 128 l 1,1,-1
 192 128 l 1,2,-1
 192 0 l 1,3,-1
 128 0 l 1,0,-1
192 192 m 1,4,-1
 128 192 l 1,5,-1
 128 384 l 1,6,-1
 224 384 l 2,7,8
 320 384 320 384 320 481 c 0,9,10
 320 576 320 576 224 576 c 2,11,-1
 0 576 l 1,12,-1
 0 640 l 1,13,-1
 224 640 l 2,14,15
 384 640 384 640 384 480 c 128,-1,16
 384 320 384 320 224 320 c 2,17,-1
 192 320 l 1,18,-1
 192 192 l 1,4,-1
EndSplineSet
EndChar
StartChar: exclam
Encoding: 33 33 71
Width: 192
Flags: W
HStem: 0 128<64 128> 596 20G<64 128>
VStem: 64 64<0 128 209 616>
LayerCount: 2
Fore
SplineSet
64 0 m 5,0,-1
 64 128 l 5,1,-1
 128 128 l 5,2,-1
 128 0 l 5,3,-1
 64 0 l 5,0,-1
64 209 m 5,4,-1
 64 616 l 5,5,-1
 128 616 l 5,6,-1
 128 209 l 5,7,-1
 64 209 l 5,4,-1
EndSplineSet
EndChar
StartChar: numbersign
Encoding: 35 35 73
Width: 720
VWidth: 1280
Flags: W
HStem: 0 21G<80 169.547 293 382.925> 159 81<68 140 250 356 464 560> 476 80<160 256 364 470 578 652> 696 20G<337.125 427 550.25 640>
LayerCount: 2
Fore
SplineSet
382 240 m 1,0,-1
 470 476 l 1,1,-1
 338 476 l 1,2,-1
 250 240 l 5,3,-1
 382 240 l 1,0,-1
80 0 m 1,4,-1
 140 159 l 1,5,-1
 68 159 l 1,6,-1
 68 240 l 1,7,-1
 168 240 l 5,8,-1
 256 476 l 1,9,-1
 160 476 l 1,10,-1
 160 556 l 1,11,-1
 282 556 l 1,12,-1
 345 716 l 1,13,-1
 427 716 l 1,14,-1
 364 556 l 1,15,-1
 496 556 l 1,16,-1
 558 716 l 1,17,-1
 640 716 l 1,18,-1
 578 556 l 1,19,-1
 652 556 l 1,20,-1
 652 476 l 1,21,-1
 552 476 l 1,22,-1
 464 240 l 1,23,-1
 560 240 l 1,24,-1
 560 159 l 1,25,-1
 438 159 l 1,26,-1
 375 0 l 1,27,-1
 293 0 l 1,28,-1
 356 159 l 1,29,-1
 222 159 l 1,30,-1
 162 0 l 1,31,-1
 80 0 l 1,4,-1
EndSplineSet
Validated: 19457
EndChar
StartChar: dollar
Encoding: 36 36 89
Width: 448
VWidth: 0
Flags: W
HStem: 0 64<145.102 192 256 302.898> 313 64<132.164 192 256 302.898> 509 64<131.625 192 256 384>
VStem: 54 64<89.6653 189 391.654 494.757> 192 64<-64 0 64 313 377 509 573 640> 330 64<90.413 286.745>
CounterMasks: 1 1c
LayerCount: 2
Fore
SplineSet
256 377 m 1,0,1
 394 377 394 377 394 192 c 0,2,3
 394 0 394 0 256 0 c 1,4,-1
 256 -64 l 1,5,-1
 192 -64 l 1,6,-1
 192 0 l 1,7,8
 54 0 54 0 54 189 c 1,9,-1
 118 189 l 1,10,11
 118 64 118 64 192 64 c 1,12,-1
 192 313 l 1,13,14
 54 313 54 313 54 443 c 128,-1,15
 54 573 54 573 192 573 c 1,16,-1
 192 640 l 1,17,-1
 256 640 l 1,18,-1
 256 573 l 1,19,-1
 384 573 l 1,20,-1
 384 509 l 1,21,-1
 256 509 l 1,22,-1
 256 377 l 1,0,1
256 64 m 1,23,24
 330 64 330 64 330 191 c 0,25,26
 330 313 330 313 256 313 c 1,27,-1
 256 64 l 1,23,24
192 509 m 1,28,29
 118 509 118 509 118 445 c 0,30,31
 118 377 118 377 192 377 c 1,32,-1
 192 509 l 1,28,29
EndSplineSet
EndChar
StartChar: percent
Encoding: 37 37 88
Width: 576
Flags: W
HStem: 0 66<385.827 448.128> 129 63<385.827 447.193> 380 64<130.234 191.609> 508 64<130.234 191.609>
VStem: 64 65<445.048 506.266> 193 64<445.15 506.423> 320 65<67.2177 128.009> 449 64<67.2177 127.173>
LayerCount: 2
Fore
SplineSet
129 476 m 128,-1,1
 129 444 129 444 161 444 c 128,-1,2
 193 444 193 444 193 476 c 128,-1,3
 193 508 193 508 161 508 c 128,-1,0
 129 508 129 508 129 476 c 128,-1,1
64 475 m 0,4,5
 64 572 64 572 161 572 c 0,6,7
 257 572 257 572 257 479 c 0,8,9
 257 380 257 380 161 380 c 0,10,11
 64 380 64 380 64 475 c 0,4,5
385 97.5 m 128,-1,13
 385 66 385 66 417 66 c 128,-1,14
 449 66 449 66 449 97.5 c 0,15,16
 449 109 449 109 439.5 119 c 128,-1,17
 430 129 430 129 417 129 c 0,18,12
 385 129 385 129 385 97.5 c 128,-1,13
320 97 m 0,19,20
 320 136 320 136 349 164 c 128,-1,21
 378 192 378 192 417 192 c 128,-1,22
 456 192 456 192 484.5 164 c 128,-1,23
 513 136 513 136 513 97 c 0,24,25
 513 57 513 57 484.5 28.5 c 128,-1,26
 456 0 456 0 417 0 c 128,-1,27
 378 0 378 0 349 28.5 c 128,-1,28
 320 57 320 57 320 97 c 0,19,20
128 0 m 1,29,-1
 384 577 l 1,30,-1
 448 577 l 1,31,-1
 192 0 l 1,32,-1
 128 0 l 1,29,-1
EndSplineSet
EndChar
StartChar: ampersand
Encoding: 38 38 90
Width: 512
Flags: W
HStem: 0 64<157.046 307.73> 508 64<138.797 245.203>
VStem: 54 64<104.172 285.583> 64 64<395.259 496.425> 256 64<395.588 496.425>
LayerCount: 2
Fore
SplineSet
192 384 m 128,-1,1
 256 384 256 384 256 447 c 0,2,3
 256 508 256 508 192 508 c 128,-1,4
 128 508 128 508 128 447 c 0,5,0
 128 384 128 384 192 384 c 128,-1,1
64 447 m 0,6,7
 64 572 64 572 192 572 c 128,-1,8
 320 572 320 572 320 447 c 0,9,10
 320 364 320 364 247 332 c 1,11,-1
 355 171 l 1,12,-1
 394 253 l 1,13,-1
 459 253 l 1,14,-1
 392 109 l 1,15,-1
 458 0 l 1,16,-1
 394 0 l 1,17,-1
 363 49 l 1,18,19
 333 0 333 0 225 0 c 0,20,21
 54 0 54 0 54 195 c 0,22,23
 54 299 54 299 109 350 c 1,24,25
 64 386 64 386 64 447 c 0,6,7
181 316 m 1,26,27
 118 294 118 294 118 195 c 0,28,29
 118 64 118 64 225 64 c 0,30,31
 304 64 304 64 325 107 c 1,32,-1
 181 316 l 1,26,27
EndSplineSet
EndChar
StartChar: quotesingle
Encoding: 39 39 77
Width: 240
VWidth: 1280
Flags: W
HStem: 450 320<80 160>
VStem: 68 104<578.853 770> 80 80<450 641.147>
LayerCount: 2
Fore
SplineSet
80 450 m 1,0,-1
 68 770 l 1,1,-1
 172 770 l 1,2,-1
 160 450 l 1,3,-1
 80 450 l 1,0,-1
EndSplineSet
Validated: 19457
EndChar
StartChar: parenleft
Encoding: 40 40 85
Width: 320
VWidth: 0
Flags: W
HStem: -65 65<191.281 256> 573 65<191.281 256>
VStem: 64 64<83.8098 489.685>
LayerCount: 2
Fore
SplineSet
256 -65 m 1,0,1
 64 -65 64 -65 64 236 c 2,2,-1
 64 338 l 2,3,4
 64 638 64 638 256 638 c 1,5,-1
 256 573 l 1,6,7
 128 573 128 573 128 338 c 2,8,-1
 128 236 l 2,9,10
 128 0 128 0 256 0 c 1,11,-1
 256 -65 l 1,0,1
EndSplineSet
EndChar
StartChar: parenright
Encoding: 41 41 86
Width: 400
VWidth: 0
Flags: W
HStem: -80 80<80 149.141> 716 80<80 149.141>
VStem: 235 85<115.234 601.156>
LayerCount: 2
Fore
SplineSet
80 -80 m 1,0,-1
 80 0 l 1,1,2
 235 0 235 0 235 295 c 2,3,-1
 235 422 l 2,4,5
 235 716 235 716 80 716 c 1,6,-1
 80 796 l 1,7,8
 320 796 320 796 320 422 c 2,9,-1
 320 295 l 2,10,11
 320 -80 320 -80 80 -80 c 1,0,-1
EndSplineSet
Validated: 19457
EndChar
StartChar: asterisk
Encoding: 42 42 87
Width: 560
VWidth: 1280
Flags: W
VStem: 240 80<80 259 454 636>
LayerCount: 2
Fore
SplineSet
240 80 m 1,0,-1
 240 259 l 1,1,-1
 128 144 l 1,2,-1
 68 204 l 1,3,-1
 220 356 l 1,4,-1
 68 509 l 1,5,-1
 128 569 l 1,6,-1
 240 454 l 1,7,-1
 240 636 l 1,8,-1
 320 636 l 1,9,-1
 320 454 l 1,10,-1
 432 569 l 1,11,-1
 492 509 l 1,12,-1
 340 356 l 1,13,-1
 492 204 l 1,14,-1
 432 144 l 1,15,-1
 320 259 l 1,16,-1
 320 80 l 1,17,-1
 240 80 l 1,0,-1
EndSplineSet
EndChar
StartChar: plus
Encoding: 43 43 76
Width: 560
VWidth: 1280
Flags: WO
HStem: 329 80<68 240 320 492>
VStem: 240 80<157 329 409 581>
LayerCount: 2
Fore
SplineSet
240 157 m 1,0,-1
 240 329 l 1,1,-1
 68 329 l 1,2,-1
 68 409 l 1,3,-1
 240 409 l 1,4,-1
 240 581 l 1,5,-1
 320 581 l 1,6,-1
 320 409 l 1,7,-1
 492 409 l 1,8,-1
 492 329 l 1,9,-1
 320 329 l 1,10,-1
 320 157 l 1,11,-1
 240 157 l 1,0,-1
EndSplineSet
Validated: 19457
EndChar
StartChar: comma
Encoding: 44 44 74
Width: 296
VWidth: 1280
Flags: W
HStem: 0 160<68 148>
VStem: 68 160<0 160>
LayerCount: 2
Fore
SplineSet
68 -160 m 1,0,-1
 148 0 l 1,1,-1
 68 0 l 1,2,-1
 68 160 l 1,3,-1
 228 160 l 1,4,-1
 228 0 l 1,5,-1
 148 -160 l 1,6,-1
 68 -160 l 1,0,-1
EndSplineSet
Validated: 19457
EndChar
StartChar: hyphen
Encoding: 45 45 59
Width: 560
VWidth: 1280
Flags: W
HStem: 310 74<68 492>
LayerCount: 2
Fore
SplineSet
68 310 m 5,0,-1
 68 384 l 5,1,-1
 492 384 l 5,2,-1
 492 310 l 5,3,-1
 68 310 l 5,0,-1
EndSplineSet
EndChar
StartChar: period
Encoding: 46 46 52
Width: 224
VWidth: 1024
Flags: W
HStem: 0 128<64 192>
VStem: 64 128<0 128>
AnchorPoint: "top" 128 -63.8964 mark 0
LayerCount: 2
Fore
SplineSet
64 0 m 1
 64 128 l 1
 192 128 l 1
 192 0 l 1
 64 0 l 1
EndSplineSet
EndChar
StartChar: slash
Encoding: 47 47 75
Width: 448
Flags: W
LayerCount: 2
Fore
SplineSet
27 -106 m 5,0,-1
 352 679 l 5,1,-1
 421 679 l 5,2,-1
 96 -106 l 5,3,-1
 27 -106 l 5,0,-1
EndSplineSet
EndChar
StartChar: zero
Encoding: 48 48 43
Width: 512
VWidth: 0
Flags: W
HStem: 0 64<155.602 214 288 354.24> 509 64<155.602 214 288 354.24>
VStem: 54 64<103.821 210 363 469.179> 394 64<108.486 210 363 464.514>
LayerCount: 2
Fore
SplineSet
458 363 m 2,0,1
 458 573 458 573 288 573 c 2,2,-1
 214 573 l 2,3,4
 54 573 54 573 54 363 c 2,5,-1
 54 210 l 2,6,7
 54 0 54 0 214 0 c 2,8,-1
 288 0 l 2,9,10
 458 0 458 0 458 210 c 2,11,-1
 458 363 l 2,0,1
394 210 m 2,12,13
 394 64 394 64 288 64 c 2,14,-1
 214 64 l 2,15,16
 118 64 118 64 118 210 c 2,17,-1
 118 363 l 2,18,19
 118 509 118 509 214 509 c 2,20,-1
 288 509 l 2,21,22
 394 509 394 509 394 363 c 2,23,-1
 394 210 l 2,12,13
EndSplineSet
EndChar
StartChar: one
Encoding: 49 49 58
Width: 480
VWidth: 1024
Flags: W
HStem: 0 64<96 224 288 416> 556 20G<210.667 288>
VStem: 224 64<64 468>
LayerCount: 2
Fore
SplineSet
96 0 m 1
 96 64 l 1
 224 64 l 1
 224 468 l 1
 170 384 l 1
 96 384 l 1
 224 576 l 1
 288 576 l 1
 288 64 l 1
 416 64 l 1
 416 0 l 1
 96 0 l 1
EndSplineSet
Validated: 1
EndChar
StartChar: two
Encoding: 50 50 60
Width: 640
VWidth: 0
Flags: W
HStem: 0 80<148 572> 391 80<194.009 474.562> 636 80<80 478.049>
VStem: 68 80<80 337.161> 505 80<499.926 610.375>
LayerCount: 2
Fore
SplineSet
68 0 m 1,0,-1
 68 202 l 2,1,2
 68 471 68 471 245 471 c 2,3,-1
 388 471 l 2,4,5
 506 471 506 471 505 556 c 0,6,7
 506 636 506 636 388 636 c 2,8,-1
 80 636 l 1,9,-1
 80 716 l 1,10,-1
 388 716 l 6,11,12
 586 716 586 716 585 556 c 0,13,14
 586 391 586 391 388 391 c 2,15,-1
 245 391 l 2,16,17
 148 390 148 390 148 202 c 2,18,-1
 148 80 l 1,19,-1
 572 80 l 1,20,-1
 572 0 l 1,21,-1
 68 0 l 1,0,-1
EndSplineSet
EndChar
StartChar: three
Encoding: 51 51 61
Width: 480
VWidth: 0
Flags: W
HStem: -5 64<158.477 352.675> 320 64<192 356.35> 512 64<64 366.621>
VStem: 64 64<90.9961 192> 384 64<90.2567 291.361 400.954 494.137>
LayerCount: 2
Fore
SplineSet
384 448 m 0
 384 491 353 512 292 512 c 2
 64 512 l 1
 64 576 l 1
 292 576 l 2
 402 576 449 528 449 449 c 0
 449 404 436 369 404 347 c 1
 444 309 448 247 448 192 c 0
 448 104 437 -5 287 -5 c 2
 224 -5 l 2
 74 -5 65 104 64 192 c 1
 128 192 l 1
 129 118 136 59 224 59 c 2
 287 59 l 2
 375 59 384 119 384 192 c 0
 384 266 375 320 287 320 c 1
 192 320 l 1
 192 384 l 1
 292 384 l 2
 353 384 384 405 384 448 c 0
EndSplineSet
Validated: 1
EndChar
StartChar: four
Encoding: 52 52 62
Width: 512
Flags: W
HStem: 0 21G<320 384> 191 65<128 320 384 448> 556 20G<320 384>
VStem: 64 64<256 528> 320 64<0 191 256 576>
LayerCount: 2
Fore
SplineSet
320 0 m 1,0,-1
 320 191 l 1,1,-1
 64 191 l 1,2,-1
 64 528 l 1,3,-1
 128 528 l 1,4,-1
 128 256 l 1,5,-1
 320 256 l 1,6,-1
 320 576 l 1,7,-1
 384 576 l 1,8,-1
 384 256 l 1,9,-1
 448 256 l 1,10,-1
 448 191 l 1,11,-1
 384 191 l 1,12,-1
 384 0 l 1,13,-1
 320 0 l 1,0,-1
EndSplineSet
Validated: 19457
EndChar
StartChar: five
Encoding: 53 53 63
Width: 512
VWidth: 0
Flags: W
HStem: 0 64<64 358.067> 319 65<128 358.067> 512 64<128 448>
VStem: 64 64<384 512> 384 64<90.1746 293.106>
LayerCount: 2
Fore
SplineSet
287 0 m 2,0,-1
 64 0 l 1,1,-1
 64 64 l 1,2,-1
 287 64 l 2,3,4
 347 64 347 64 365.5 95.5 c 128,-1,5
 384 127 384 127 384 191.5 c 128,-1,6
 384 256 384 256 365.5 287.5 c 128,-1,7
 347 319 347 319 287 319 c 2,8,-1
 64 319 l 1,9,-1
 64 576 l 1,10,-1
 448 576 l 1,11,-1
 448 512 l 1,12,-1
 128 512 l 1,13,-1
 128 384 l 1,14,-1
 287 384 l 2,15,16
 330 383 330 383 361 371 c 128,-1,17
 392 359 392 359 408.5 341.5 c 128,-1,18
 425 324 425 324 434.5 296.5 c 128,-1,19
 444 269 444 269 446 246.5 c 128,-1,20
 448 224 448 224 448 192 c 128,-1,21
 448 160 448 160 446 137.5 c 128,-1,22
 444 115 444 115 434.5 87 c 128,-1,23
 425 59 425 59 408.5 41.5 c 128,-1,24
 392 24 392 24 361 12 c 128,-1,25
 330 0 330 0 287 0 c 2,0,-1
EndSplineSet
Validated: 19457
EndChar
StartChar: six
Encoding: 54 54 64
Width: 640
VWidth: 0
Flags: W
HStem: -5 80<191.192 444.406> 391 80<153 449.838> 636 80<196.07 492>
VStem: 68 85<113.995 391 471 587.75> 502 85<133.448 337.149>
LayerCount: 2
Fore
SplineSet
371 75 m 2,0,1
 502 75 502 75 502 241 c 0,2,3
 502 391 502 391 371 391 c 2,4,-1
 153 391 l 1,5,-1
 153 198 l 2,6,7
 153 75 153 75 262 75 c 2,8,-1
 371 75 l 2,0,1
262 -5 m 2,9,10
 68 -5 68 -5 68 198 c 2,11,-1
 68 488 l 2,12,13
 68 716 68 716 262 716 c 2,14,-1
 492 716 l 1,15,-1
 492 636 l 1,16,-1
 262 636 l 2,17,18
 153 636 153 636 153 488 c 2,19,-1
 153 471 l 1,20,-1
 371 471 l 2,21,22
 587 471 587 471 587 241 c 0,23,24
 587 -5 587 -5 371 -5 c 2,25,-1
 262 -5 l 2,9,10
EndSplineSet
Validated: 19457
EndChar
StartChar: seven
Encoding: 55 55 65
Width: 480
VWidth: 1024
Flags: W
HStem: 0 21G<192 256> 512 64<128 384>
VStem: 64 64<384 512> 192 64<0 218> 384 64<432 512>
LayerCount: 2
Fore
SplineSet
192 0 m 1
 192 240 l 1
 384 432 l 1
 384 512 l 1
 128 512 l 1
 128 384 l 1
 64 384 l 1
 64 576 l 1
 448 576 l 1
 448 410 l 1
 256 218 l 1
 256 0 l 1
 192 0 l 1
EndSplineSet
Validated: 1
EndChar
StartChar: eight
Encoding: 56 56 51
Width: 640
VWidth: 0
Flags: W
HStem: -5 80<183.732 456.268> 329 80<182.837 457.163> 641 80<178.85 461.15>
VStem: 58 85<115.762 288.965 445.471 602.834> 497 85<115.762 288.965 445.471 602.834>
LayerCount: 2
Fore
SplineSet
256 75 m 2,0,1
 384 75 l 2,2,3
 497 75 497 75 497 202 c 256,4,5
 497 329 497 329 384 329 c 2,6,-1
 256 329 l 2,7,8
 143 329 143 329 143 202 c 256,9,10
 143 75 143 75 256 75 c 2,0,1
384 -5 m 2,11,-1
 256 -5 l 2,12,13
 58 -5 58 -5 58 202 c 0,14,15
 58 309 58 309 129 368 c 1,16,17
 58 424 58 424 58 525 c 0,18,19
 58 721 58 721 256 721 c 2,20,-1
 384 721 l 2,21,22
 582 721 582 721 582 525 c 0,23,24
 582 424 582 424 511 368 c 1,25,26
 582 309 582 309 582 202 c 0,27,28
 582 -5 582 -5 384 -5 c 2,11,-1
256 409 m 2,29,-1
 384 409 l 2,30,31
 497 409 497 409 497 525 c 256,32,33
 497 641 497 641 384 641 c 2,34,-1
 256 641 l 2,35,36
 143 641 143 641 143 525 c 256,37,38
 143 409 143 409 256 409 c 2,29,-1
EndSplineSet
Validated: 19457
EndChar
StartChar: nine
Encoding: 57 57 66
Width: 512
VWidth: 0
Flags: W
HStem: 0 64<118 363.5> 252 61<144 394> 509 64<147.789 359.521>
VStem: 54 64<338.148 480.53> 394 64<93.7891 252 313 476.25>
LayerCount: 2
Fore
SplineSet
290 0 m 2,0,-1
 118 0 l 1,1,-1
 118 64 l 1,2,-1
 290 64 l 2,3,4
 394 64 394 64 394 160 c 2,5,-1
 394 252 l 1,6,-1
 214 252 l 2,7,8
 54 252 54 252 54 401.5 c 0,9,10
 54 573 54 573 214 573 c 2,11,-1
 290 573 l 2,12,13
 458 573 458 573 458 401 c 2,14,-1
 458 160 l 2,15,16
 458 0 458 0 290 0 c 2,0,-1
394 401 m 2,17,18
 394 509 394 509 290 509 c 2,19,-1
 214 509 l 2,20,21
 118 509 118 509 118 402 c 0,22,23
 118 313 118 313 214 313 c 2,24,-1
 394 313 l 1,25,-1
 394 401 l 2,17,18
EndSplineSet
EndChar
StartChar: colon
Encoding: 58 58 53
Width: 256
Flags: W
HStem: 63 129<64 192> 383 129<64 192>
VStem: 64 128<63 192 383 512>
LayerCount: 2
Fore
SplineSet
64 104 m 1,0,-1
 64 233 l 1,1,-1
 192 233 l 1,2,-1
 192 104 l 1,3,-1
 64 104 l 1,0,-1
64 340 m 1,4,-1
 64 469 l 1,5,-1
 192 469 l 1,6,-1
 192 340 l 1,7,-1
 64 340 l 1,4,-1
EndSplineSet
EndChar
StartChar: semicolon
Encoding: 59 59 67
Width: 296
VWidth: 1280
Flags: W
HStem: 118 161<68 148> 438 161<68 228>
VStem: 68 160<118 279 438 599>
LayerCount: 2
Fore
SplineSet
68 -42 m 1,0,-1
 148 118 l 1,1,-1
 68 118 l 1,2,-1
 68 279 l 1,3,-1
 228 279 l 1,4,-1
 228 118 l 1,5,-1
 148 -42 l 1,6,-1
 68 -42 l 1,0,-1
68 438 m 1,7,-1
 68 599 l 1,8,-1
 228 599 l 1,9,-1
 228 438 l 1,10,-1
 68 438 l 1,7,-1
EndSplineSet
EndChar
StartChar: less
Encoding: 60 60 68
Width: 480
VWidth: 1280
Flags: W
LayerCount: 2
Fore
SplineSet
308 80 m 1,0,-1
 55 358 l 1,1,-1
 308 636 l 1,2,-1
 412 636 l 1,3,-1
 160 358 l 1,4,-1
 412 80 l 1,5,-1
 308 80 l 1,0,-1
EndSplineSet
EndChar
StartChar: equal
Encoding: 61 61 70
Width: 448
Flags: W
HStem: 128 64<54 394> 381 64<54 394>
VStem: 54 340<128 192 381 445>
LayerCount: 2
Fore
SplineSet
54 128 m 1,0,-1
 54 192 l 1,1,-1
 394 192 l 1,2,-1
 394 128 l 1,3,-1
 54 128 l 1,0,-1
54 381 m 1,4,-1
 54 445 l 1,5,-1
 394 445 l 1,6,-1
 394 381 l 1,7,-1
 54 381 l 1,4,-1
EndSplineSet
EndChar
StartChar: greater
Encoding: 62 62 69
Width: 384
Flags: W
VStem: 54 286
LayerCount: 2
Fore
SplineSet
138 64 m 1,0,-1
 54 64 l 1,1,-1
 256 286 l 1,2,-1
 54 509 l 1,3,-1
 138 509 l 1,4,-1
 340 286 l 1,5,-1
 138 64 l 1,0,-1
EndSplineSet
EndChar
StartChar: question
Encoding: 63 63 55
Width: 416
VWidth: 1024
Flags: W
HStem: 0 128<128 192> 320 64<192 287.402> 576 64<0 287.402>
VStem: 128 64<0 128 192 320> 320 64<414.497 546.155>
LayerCount: 2
Fore
SplineSet
128 0 m 5
 128 128 l 5
 192 128 l 5
 192 0 l 5
 128 0 l 5
192 192 m 5
 128 192 l 5
 128 384 l 5
 224 384 l 6
 308 384 320 449 320 481 c 4
 320 513 308 576 224 576 c 6
 0 576 l 5
 0 640 l 5
 224 640 l 6
 368 640 383 531 384 480 c 4
 383 430 368 320 224 320 c 6
 192 320 l 29
 192 192 l 5
EndSplineSet
Validated: 1
EndChar
StartChar: at
Encoding: 64 64 91
Width: 576
Flags: W
HStem: -65 65<200.545 512> 127 62<256 320 384 458> 509 64<176.07 403.591>
VStem: 54 64<78.6145 445.184> 192 64<189 256> 320 64<189 320> 458 64<189 455.899>
LayerCount: 2
Fore
SplineSet
320 189 m 1,0,-1
 320 320 l 1,1,-1
 256 256 l 1,2,-1
 256 189 l 1,3,-1
 320 189 l 1,0,-1
512 -65 m 1,4,-1
 304 -65 l 2,5,6
 54 -65 54 -65 54 180 c 2,7,-1
 54 336 l 2,8,9
 54 573 54 573 254 573 c 2,10,-1
 320 573 l 2,11,12
 522 573 522 573 522 366 c 2,13,-1
 522 127 l 1,14,-1
 192 127 l 1,15,-1
 192 276 l 1,16,-1
 300 383 l 1,17,-1
 384 383 l 1,18,-1
 384 189 l 1,19,-1
 458 189 l 1,20,-1
 458 366 l 2,21,22
 458 509 458 509 320 509 c 2,23,-1
 254 509 l 2,24,25
 118 509 118 509 118 336 c 2,26,-1
 118 180 l 2,27,28
 118 0 118 0 304 0 c 2,29,-1
 512 0 l 1,30,-1
 512 -65 l 1,4,-1
EndSplineSet
EndChar
StartChar: A
Encoding: 65 65 28
Width: 640
VWidth: 0
Flags: W
HStem: 0 21G<68 148 492 572> 0 21G<68 148 492 572> 255 81<148 492> 636 80<203.892 436.108>
VStem: 68 80<0 255 336 577.479> 492 80<0 255 336 577.479>
AnchorPoint: "bottom" 320 0 basechar 0
AnchorPoint: "top" 320 716 basechar 0
LayerCount: 2
Fore
SplineSet
282 716 m 2,0,-1
 358 716 l 2,1,2
 572 716 572 716 572 470 c 2,3,-1
 572 0 l 1,4,-1
 492 0 l 1,5,-1
 492 255 l 1,6,-1
 148 255 l 1,7,-1
 148 0 l 1,8,-1
 68 0 l 1,9,-1
 68 470 l 2,10,11
 68 716 68 716 282 716 c 2,0,-1
358 636 m 2,12,-1
 282 636 l 2,13,14
 148 636 148 636 148 470 c 2,15,-1
 148 336 l 1,16,-1
 492 336 l 1,17,-1
 492 470 l 2,18,19
 492 636 492 636 358 636 c 2,12,-1
EndSplineSet
EndChar
StartChar: B
Encoding: 66 66 29
Width: 640
VWidth: 0
Flags: W
HStem: 0 80<153 451.211> 329 80<153 448.702> 636 80<153 451.868>
VStem: 68 85<80 329 409 636> 497 85<126.284 281.472 451.004 593.238>
AnchorPoint: "macron-below" 320 0 basechar 0
AnchorPoint: "bottom" 320 0 basechar 0
AnchorPoint: "top" 320 716 basechar 0
AnchorPoint: "cedilla" 320 0 basechar 0
AnchorPoint: "ogonek" 410 10 basechar 0
AnchorPoint: "top-right" 572 716 basechar 0
AnchorPoint: "middle-right" 572 358 basechar 0
LayerCount: 2
Fore
SplineSet
153 329 m 1,0,-1
 153 80 l 1,1,-1
 360 80 l 2,2,3
 497 80 497 80 497 201 c 0,4,5
 497 329 497 329 360 329 c 2,6,-1
 153 329 l 1,0,-1
508 370 m 1,7,8
 582 310 582 310 582 201 c 0,9,10
 582 0 582 0 360 0 c 2,11,-1
 68 0 l 1,12,-1
 68 716 l 1,13,-1
 360 716 l 2,14,15
 582 716 582 716 582 522 c 0,16,17
 582 432 582 432 508 370 c 1,7,8
360 409 m 2,18,19
 497 409 497 409 497 522 c 0,20,21
 497 636 497 636 360 636 c 2,22,-1
 153 636 l 1,23,-1
 153 409 l 1,24,-1
 360 409 l 2,18,19
EndSplineSet
Validated: 19457
EndChar
StartChar: C
Encoding: 67 67 30
Width: 640
VWidth: 0
Flags: W
HStem: -5 80<198.711 474.048> 641 80<198.711 474.048>
VStem: 68 80<132.153 583.847> 497 85<101.201 169 548 615.409>
AnchorPoint: "bottom" 320 -5 basechar 0
AnchorPoint: "top" 320 721 basechar 0
LayerCount: 2
Fore
SplineSet
148 470 m 10,0,1
 148 246 l 18,2,3
 148 75 148 75 266 75 c 10,4,-1
 412 75 l 18,5,6
 497 75 497 75 497 169 c 1,7,-1
 582 169 l 1,8,9
 582 -5 582 -5 412 -5 c 10,10,-1
 266 -5 l 18,11,12
 68 -5 68 -5 68 246 c 10,13,-1
 68 470 l 18,14,15
 68 721 68 721 266 721 c 10,16,-1
 412 721 l 18,17,18
 582 721 582 721 582 548 c 1,19,-1
 497 548 l 5,20,21
 497 641 497 641 412 641 c 10,22,-1
 266 641 l 18,23,24
 148 641 148 641 148 470 c 10,0,1
EndSplineSet
EndChar
StartChar: D
Encoding: 68 68 32
Width: 512
VWidth: 0
Flags: W
HStem: 0 64<118 352.033> 509 64<118 278.488>
VStem: 54 64<64 509> 404 64<124.041 354.397>
LayerCount: 2
Fore
SplineSet
278 64 m 2,0,1
 404 64 404 64 404 230 c 6,2,-1
 404 263 l 6,3,4
 404 340 404 340 337 431 c 0,5,6
 279 509 279 509 206 509 c 2,7,-1
 118 509 l 1,8,-1
 118 64 l 1,9,-1
 278 64 l 2,0,1
54 573 m 1,10,-1
 206 573 l 2,11,12
 319 573 319 573 388 474 c 0,13,14
 468 360 468 360 468 263 c 6,15,-1
 468 230 l 6,16,17
 468 0 468 0 278 0 c 2,18,-1
 54 0 l 1,19,-1
 54 573 l 1,10,-1
EndSplineSet
EndChar
StartChar: E
Encoding: 69 69 33
Width: 480
VWidth: 1024
Flags: W
HStem: 0 64<128 448> 256 64<128 384> 512 64<128 448>
VStem: 64 64<64 256 320 512>
CounterMasks: 1 e0
AnchorPoint: "top" 257 576 basechar 0
LayerCount: 2
Fore
SplineSet
64 0 m 1
 64 576 l 1
 448 576 l 1
 448 512 l 1
 128 512 l 1
 128 320 l 1
 384 320 l 1
 384 256 l 1
 128 256 l 1
 128 64 l 1
 448 64 l 1
 448 0 l 1
 64 0 l 1
EndSplineSet
Validated: 1
EndChar
StartChar: F
Encoding: 70 70 34
Width: 448
VWidth: 1024
Flags: W
HStem: 0 21G<64 128> 256 64<128 384> 512 64<128 448>
VStem: 64 64<0 256 320 512>
LayerCount: 2
Fore
SplineSet
64 0 m 1
 64 576 l 1
 448 576 l 1
 448 512 l 1
 128 512 l 1
 128 320 l 1
 384 320 l 1
 384 256 l 1
 128 256 l 1
 128 0 l 1
 64 0 l 1
EndSplineSet
Validated: 1
EndChar
StartChar: G
Encoding: 71 71 36
Width: 480
VWidth: 0
Flags: W
HStem: 0 64<155.221 384> 256 64<256 384> 512 64<155.221 448>
VStem: 64 64<93.1695 482.831> 384 64<64 256>
CounterMasks: 1 e0
LayerCount: 2
Fore
SplineSet
448 576 m 1
 448 512 l 1
 224 512 l 2
 128 512 128 447 128 363 c 2
 128 213 l 2
 128 129 128 64 224 64 c 2
 384 64 l 1
 384 256 l 1
 256 256 l 1
 256 320 l 1
 448 320 l 1
 448 0 l 1
 224 0 l 2
 65 0 64 116 64 207 c 2
 64 369 l 2
 64 460 65 576 224 576 c 2
 448 576 l 1
EndSplineSet
Validated: 1
EndChar
StartChar: H
Encoding: 72 72 37
Width: 480
VWidth: 1024
Flags: W
HStem: 0 21G<64 128 384 448> 256 64<128 384> 556 20G<64 128 384 448>
VStem: 64 64<0 256 320 576> 384 64<0 256 320 576>
LayerCount: 2
Fore
SplineSet
64 0 m 1
 64 576 l 1
 128 576 l 1
 128 320 l 1
 384 320 l 1
 384 576 l 1
 448 576 l 1
 448 0 l 1
 384 0 l 1
 384 256 l 1
 128 256 l 1
 128 0 l 1
 64 0 l 1
EndSplineSet
Validated: 1
EndChar
StartChar: I
Encoding: 73 73 38
Width: 416
VWidth: 1024
Flags: W
HStem: 0 64<64 192 256 384> 512 64<64 192 256 384>
VStem: 192 64<64 512>
AnchorPoint: "top" 225 576 basechar 0
LayerCount: 2
Fore
SplineSet
64 0 m 1
 64 64 l 1
 192 64 l 1
 192 512 l 1
 64 512 l 1
 64 576 l 1
 384 576 l 1
 384 512 l 1
 256 512 l 1
 256 64 l 1
 384 64 l 1
 384 0 l 1
 64 0 l 1
EndSplineSet
Validated: 1
EndChar
StartChar: J
Encoding: 74 74 39
Width: 480
VWidth: 0
Flags: W
HStem: 0 64<155.221 356.779> 556 20G<384 448>
VStem: 64 64<93.1695 256> 384 64<93.1695 576>
LayerCount: 2
Fore
SplineSet
128 256 m 5
 128 213 l 6
 128 129 128 64 224 64 c 6
 288 64 l 6
 384 64 384 129 384 213 c 6
 384 576 l 5
 448 576 l 5
 448 207 l 6
 448 116 447 0 288 -0 c 6
 224 0 l 6
 65 0 64 116 64 207 c 6
 64 256 l 5
 128 256 l 5
EndSplineSet
Validated: 1
EndChar
StartChar: K
Encoding: 75 75 40
Width: 512
VWidth: 0
Flags: W
HStem: 0 21G<54 118 389 458> 0 21G<54 118 389 458> 263 64<118 292.836> 553 20G<54 118 389 458>
VStem: 54 64<0 263 327 573> 394 64<0 132.977 448.619 573>
LayerCount: 2
Fore
SplineSet
118 263 m 1,0,-1
 118 0 l 1,1,-1
 54 0 l 1,2,-1
 54 573 l 1,3,-1
 118 573 l 1,4,-1
 118 327 l 1,5,-1
 206 327 l 2,6,7
 384 327 384 327 394 573 c 1,8,-1
 458 573 l 1,9,10
 458 333 458 333 320 293 c 1,11,12
 458 243 458 243 458 0 c 1,13,-1
 394 0 l 1,14,15
 384 263 384 263 206 263 c 2,16,-1
 118 263 l 1,0,-1
EndSplineSet
EndChar
StartChar: L
Encoding: 76 76 41
Width: 448
VWidth: 1024
Flags: W
HStem: 0 64<128 448> 556 20G<64 128>
VStem: 64 64<64 576>
LayerCount: 2
Fore
SplineSet
64 0 m 1
 64 576 l 1
 128 576 l 1
 128 64 l 1
 448 64 l 1
 448 0 l 1
 64 0 l 1
EndSplineSet
Validated: 1
EndChar
StartChar: M
Encoding: 77 77 31
Width: 544
VWidth: 1024
Flags: W
HStem: 0 21G<64 128 448 512> 556 20G<64 140.595 435.405 512>
VStem: 64 64<0 454> 448 64<0 454>
LayerCount: 2
Fore
SplineSet
64 0 m 5
 64 576 l 5
 126 576 l 5
 288 354 l 5
 450 576 l 5
 512 576 l 5
 512 0 l 5
 448 0 l 5
 448 454 l 5
 288 244 l 5
 128 454 l 5
 128 0 l 5
 64 0 l 5
EndSplineSet
Validated: 1
EndChar
StartChar: N
Encoding: 78 78 27
Width: 480
VWidth: 1024
Flags: W
HStem: 0 21G<64 128 372.468 448> 556 20G<64 139.532 384 448>
VStem: 64 64<0 444> 384 64<132 576>
LayerCount: 2
Fore
SplineSet
64 0 m 1
 64 576 l 1
 128 576 l 1
 384 132 l 1
 384 576 l 1
 448 576 l 1
 448 0 l 1
 384 0 l 1
 128 444 l 1
 128 0 l 1
 64 0 l 1
EndSplineSet
Validated: 1
EndChar
StartChar: O
Encoding: 79 79 42
Width: 512
VWidth: 0
Flags: W
HStem: -1 65<177.361 334.639> 518 65<179.852 332.148>
VStem: 54 64<133.44 447.446> 394 64<135.125 445.188>
AnchorPoint: "top" 256 573 basechar 0
AnchorPoint: "bottom" 256 0 basechar 0
LayerCount: 2
Fore
SplineSet
394 270 m 2,0,1
 394 64 394 64 256 64 c 128,-1,2
 118 64 118 64 118 270 c 2,3,-1
 118 303 l 2,4,5
 118 509 118 509 256 509 c 128,-1,6
 394 509 394 509 394 303 c 2,7,-1
 394 270 l 2,0,1
458 303 m 2,8,9
 458 573 458 573 256 573 c 128,-1,10
 54 573 54 573 54 303 c 2,11,-1
 54 270 l 2,12,13
 54 0 54 0 256 0 c 128,-1,14
 458 0 458 0 458 270 c 2,15,-1
 458 303 l 2,8,9
EndSplineSet
EndChar
StartChar: P
Encoding: 80 80 35
Width: 512
VWidth: 0
Flags: W
HStem: 0 21G<54 118> 0 21G<54 118> 264 65<118 362.375> 519 64<118 362.375>
VStem: 54 64<0 264 329 519> 394 64<357.307 489.9>
LayerCount: 2
Fore
SplineSet
288 317 m 2,0,1
 394 317 394 317 394 418 c 4,2,3
 394 509 394 509 288 509 c 2,4,-1
 118 509 l 1,5,-1
 118 317 l 1,6,-1
 288 317 l 2,0,1
118 253 m 1,7,-1
 118 0 l 1,8,-1
 54 0 l 1,9,-1
 54 573 l 1,10,-1
 288 573 l 2,11,12
 458 573 458 573 458 418 c 4,13,14
 458 253 458 253 288 253 c 2,15,-1
 118 253 l 1,7,-1
EndSplineSet
EndChar
StartChar: Q
Encoding: 81 81 44
Width: 640
VWidth: 0
Flags: W
HStem: -5 80<200.114 364.415> 641 80<200.196 432.047>
VStem: 68 85<126.574 589.742> 487 85<235.504 583.889>
LayerCount: 2
Fore
SplineSet
278 265 m 1,0,-1
 333 320 l 1,1,-1
 451 196 l 1,2,3
 487 279 487 279 487 418 c 2,4,-1
 487 479 l 2,5,6
 487 641 487 641 360 641 c 2,7,-1
 268 641 l 2,8,9
 153 641 153 641 153 479 c 2,10,-1
 153 238 l 2,11,12
 153 75 153 75 268 75 c 0,13,14
 355 75 355 75 407 129 c 1,15,-1
 278 265 l 1,0,-1
572 479 m 2,16,-1
 572 418 l 2,17,18
 572 233 572 233 514 129 c 1,19,-1
 591 48 l 1,20,-1
 536 -7 l 1,21,-1
 466 66 l 1,22,23
 392 -5 392 -5 268 -5 c 0,24,25
 68 -5 68 -5 68 238 c 2,26,-1
 68 479 l 2,27,28
 68 721 68 721 268 721 c 2,29,-1
 360 721 l 2,30,31
 572 721 572 721 572 479 c 2,16,-1
EndSplineSet
Validated: 19457
EndChar
StartChar: R
Encoding: 82 82 45
Width: 480
VWidth: 0
Flags: W
HStem: 0 21G<64 128 384 448> 256 64<128 295.666> 512 64<128 351.402>
VStem: 64 64<0 256 320 512> 384 64<0 159.165 351.231 482.155>
LayerCount: 2
Fore
SplineSet
128 256 m 1
 128 0 l 1
 64 0 l 1
 64 576 l 1
 288 576 l 2
 432 576 447 467 448 416 c 0
 447 376 438 298 361 268 c 1
 401 237 448 169 448 64 c 2
 448 0 l 1
 384 0 l 1
 384 64 l 2
 384 180 305 256 226 256 c 2
 128 256 l 1
288 320 m 2
 372 320 384 385 384 417 c 0
 384 449 372 512 288 512 c 2
 128 512 l 1
 128 320 l 1
 288 320 l 2
EndSplineSet
Validated: 1
EndChar
StartChar: S
Encoding: 83 83 46
Width: 512
VWidth: 0
Flags: W
HStem: -5 64<153.651 353.63> 313 64<140.272 357.763> 519 64<140.272 448>
VStem: 54 64<95.8503 182 398.013 497.053> 394 64<100.01 277.02>
AnchorPoint: "bottom" 256 0 basechar 0
AnchorPoint: "top" 256 573 basechar 0
LayerCount: 2
Fore
SplineSet
221 509 m 2,0,1
 118 509 118 509 118 442 c 0,2,3
 118 377 118 377 221 377 c 2,4,-1
 287 377 l 2,5,6
 458 377 458 377 458 192 c 0,7,8
 458 -5 458 -5 287 -5 c 2,9,-1
 224 -5 l 2,10,11
 54 -5 54 -5 54 182 c 1,12,-1
 118 182 l 1,13,14
 118 59 118 59 224 59 c 2,15,-1
 287 59 l 2,16,17
 394 59 394 59 394 192 c 0,18,19
 394 313 394 313 287 313 c 2,20,-1
 221 313 l 2,21,22
 54 313 54 313 54 442 c 0,23,24
 54 573 54 573 221 573 c 2,25,-1
 448 573 l 1,26,-1
 448 509 l 1,27,-1
 221 509 l 2,0,1
EndSplineSet
EndChar
StartChar: T
Encoding: 84 84 47
Width: 514
VWidth: 1024
Flags: W
HStem: 0 21G<256 320> 512 64<64 256 320 512>
VStem: 256 64<0 512>
LayerCount: 2
Fore
SplineSet
256 0 m 1
 256 512 l 1
 64 512 l 1
 64 576 l 1
 512 576 l 1
 512 512 l 1
 320 512 l 1
 320 0 l 1
 256 0 l 1
EndSplineSet
Validated: 1
EndChar
StartChar: U
Encoding: 85 85 48
Width: 512
VWidth: 0
Flags: W
HStem: 0 64<157.76 354.24> 553 20G<54 118 394 458>
VStem: 54 64<108.486 573> 394 64<108.486 573>
AnchorPoint: "bottom" 256 0 basechar 0
AnchorPoint: "top" 256 573 basechar 0
LayerCount: 2
Fore
SplineSet
458 210 m 2,0,1
 458 0 458 0 288 0 c 2,2,-1
 224 0 l 2,3,4
 54 0 54 0 54 210 c 2,5,-1
 54 573 l 1,6,-1
 118 573 l 1,7,-1
 118 210 l 2,8,9
 118 64 118 64 224 64 c 2,10,-1
 288 64 l 2,11,12
 394 64 394 64 394 210 c 2,13,-1
 394 573 l 1,14,-1
 458 573 l 1,15,-1
 458 210 l 2,0,1
EndSplineSet
EndChar
StartChar: V
Encoding: 86 86 49
Width: 459
VWidth: 0
Flags: W
HStem: 0 21G<218.271 293.729> 556 20G<59 132.798 379.202 453>
LayerCount: 2
Fore
SplineSet
288 0 m 29
 224 0 l 29
 59 576 l 5
 127 576 l 5
 256 131 l 5
 385 576 l 5
 453 576 l 5
 288 0 l 29
EndSplineSet
Validated: 1
EndChar
StartChar: W
Encoding: 87 87 54
Width: 544
VWidth: 1024
Flags: W
HStem: 0 21G<64 140.595 435.405 512> 556 20G<64 128 448 512>
VStem: 64 64<122 576> 448 64<122 576>
LayerCount: 2
Fore
SplineSet
64 576 m 1
 128 576 l 1
 128 122 l 1
 288 332 l 1
 448 122 l 1
 448 576 l 1
 512 576 l 1
 512 0 l 1
 450 0 l 1
 288 222 l 1
 126 0 l 1
 64 0 l 1
 64 576 l 1
EndSplineSet
Validated: 1
EndChar
StartChar: X
Encoding: 88 88 56
Width: 485
VWidth: 0
Flags: W
HStem: 0 21G<54 138.847 373.153 458> 556 20G<44 129.22 382.78 468>
LayerCount: 2
Fore
SplineSet
216 288 m 1
 44 576 l 1
 118 576 l 1
 256 330 l 1
 394 576 l 1
 468 576 l 1
 296 288 l 1
 458 0 l 1
 384 0 l 1
 256 236 l 1
 128 0 l 1
 54 0 l 1
 216 288 l 1
EndSplineSet
Validated: 1
EndChar
StartChar: Y
Encoding: 89 89 50
Width: 512
VWidth: 0
Flags: W
HStem: 0 21G<224 288> 0 21G<224 288> 553 20G<54 118 394 458>
VStem: 54 64<443 573> 224 64<0 251> 394 64<443 573>
CounterMasks: 1 1c
AnchorPoint: "bottom" 256 0 basechar 0
AnchorPoint: "top" 256 572 basechar 0
LayerCount: 2
Fore
SplineSet
256 303 m 1,0,1
 394 443 l 9,2,-1
 394 573 l 1,3,-1
 458 573 l 1,4,-1
 458 424 l 17,5,6
 288 251 l 1,7,-1
 288 0 l 1,8,-1
 224 0 l 1,9,-1
 224 251 l 1,10,11
 54 424 l 9,12,-1
 54 573 l 1,13,-1
 118 573 l 1,14,-1
 118 443 l 17,15,16
 256 303 l 1,0,1
EndSplineSet
EndChar
StartChar: Z
Encoding: 90 90 57
Width: 480
VWidth: 0
Flags: W
HStem: 0 64<128 448> 512 64<64 384>
VStem: 64 64<64 154> 384 64<486 512>
LayerCount: 2
Fore
SplineSet
64 0 m 1
 64 176 l 1
 384 486 l 1
 384 512 l 1
 64 512 l 1
 64 576 l 1
 448 576 l 1
 448 464 l 1
 128 154 l 1
 128 64 l 1
 448 64 l 1
 448 0 l 1
 64 0 l 1
EndSplineSet
Validated: 1
EndChar
StartChar: bracketleft
Encoding: 91 91 78
Width: 400
VWidth: 1280
Flags: W
HStem: -80 80<153 332> 716 80<153 332>
VStem: 68 85<0 716>
LayerCount: 2
Fore
SplineSet
68 -80 m 1,0,-1
 68 796 l 1,1,-1
 332 796 l 1,2,-1
 332 716 l 25,3,-1
 153 716 l 1,4,-1
 153 0 l 1,5,-1
 332 0 l 1,6,-1
 332 -80 l 1,7,-1
 68 -80 l 1,0,-1
EndSplineSet
Validated: 19457
EndChar
StartChar: backslash
Encoding: 92 92 80
Width: 512
Flags: W
LayerCount: 2
Fore
SplineSet
448 -129 m 1,0,-1
 384 -129 l 1,1,-1
 0 640 l 1,2,-1
 64 640 l 1,3,-1
 448 -129 l 1,0,-1
EndSplineSet
Validated: 19457
EndChar
StartChar: bracketright
Encoding: 93 93 79
Width: 400
VWidth: 1280
Flags: W
HStem: -80 80<68 247> 716 80<68 247>
VStem: 247 85<0 716>
LayerCount: 2
Fore
SplineSet
332 -80 m 1,0,-1
 68 -80 l 1,1,-1
 68 0 l 1,2,-1
 247 0 l 1,3,-1
 247 716 l 1,4,-1
 68 716 l 1,5,-1
 68 796 l 1,6,-1
 332 796 l 1,7,-1
 332 -80 l 1,0,-1
EndSplineSet
Validated: 19457
EndChar
StartChar: asciicircum
Encoding: 94 94 83
Width: 560
VWidth: 1280
GlyphClass: 2
Flags: W
HStem: 470 300
LayerCount: 2
Fore
SplineSet
39 529 m 1,0,-1
 280 770 l 1,1,-1
 521 529 l 1,2,-1
 462 470 l 1,3,-1
 280 652 l 1,4,-1
 98 470 l 1,5,-1
 39 529 l 1,0,-1
EndSplineSet
Validated: 19457
EndChar
StartChar: underscore
Encoding: 95 95 81
Width: 480
VWidth: 1024
Flags: W
HStem: -64 64<64 448>
LayerCount: 2
Fore
SplineSet
64 -64 m 1
 64 0 l 1
 448 0 l 1
 448 -64 l 1
 64 -64 l 1
EndSplineSet
Validated: 1
EndChar
StartChar: a
Encoding: 97 97 15
Width: 407
VWidth: 0
Flags: W
HStem: 0 64<138.531 311> 192 64<137.379 311> 384 64<119 283.779>
VStem: 55 65<81.213 174.137> 311 64<64 192 256 354.831>
CounterMasks: 1 e0
AnchorPoint: "top" 224 448 basechar 0
LayerCount: 2
Fore
SplineSet
311 192 m 1
 212 192 l 2
 151 192 120 171 120 128 c 24
 120 85 151 64 212 64 c 2
 311 64 l 25
 311 192 l 1
311 256 m 1
 311 330 303 384 215 384 c 2
 119 384 l 25
 119 448 l 25
 215 448 l 2
 374 448 375 332 375 241 c 2
 375 0 l 17
 212 0 l 2
 96 0 55 50 55 129 c 24
 55 208 102 256 212 256 c 2
 311 256 l 1
EndSplineSet
Validated: 1
EndChar
StartChar: b
Encoding: 98 98 11
Width: 448
VWidth: 0
Flags: W
HStem: 0 64<118 297.901> 360 64<118 297.901> 596 20G<54 118>
VStem: 54 64<64 360 424 616> 340 64<107.861 315.438>
LayerCount: 2
Fore
SplineSet
223 360 m 6,0,-1
 118 360 l 5,1,-1
 118 64 l 5,2,-1
 223 64 l 6,3,4
 340 64 340 64 340 200 c 6,5,-1
 340 231 l 6,6,7
 340 360 340 360 223 360 c 6,0,-1
223 0 m 6,8,-1
 54 0 l 5,9,-1
 54 616 l 5,10,-1
 118 616 l 5,11,-1
 118 424 l 5,12,-1
 223 424 l 6,13,14
 404 424 404 424 404 231 c 6,15,-1
 404 200 l 6,16,17
 404 0 404 0 223 0 c 6,8,-1
EndSplineSet
EndChar
StartChar: c
Encoding: 99 99 10
Width: 448
VWidth: 0
Flags: W
HStem: 0 64<141.141 186 264 315.265> 360 64<141.141 186 264 318.383>
VStem: 54 64<86.7773 183 251 338.471> 330 64<77.376 132 302 349.537>
AnchorPoint: "top" 227 425 basechar 0
LayerCount: 2
Fore
SplineSet
118 251 m 6,0,1
 118 360 118 360 186 360 c 6,2,-1
 264 360 l 6,3,4
 330 360 330 360 330 302 c 5,5,-1
 394 302 l 5,6,7
 394 424 394 424 265 424 c 6,8,-1
 186 424 l 6,9,10
 54 424 54 424 54 251 c 6,11,-1
 54 183 l 2,12,13
 54 0 54 0 186 0 c 2,14,-1
 265 0 l 2,15,16
 394 0 394 0 394 132 c 1,17,-1
 330 132 l 1,18,19
 330 64 330 64 264 64 c 2,20,-1
 186 64 l 2,21,22
 118 64 118 64 118 183 c 2,23,-1
 118 251 l 6,0,1
EndSplineSet
EndChar
StartChar: d
Encoding: 100 100 12
Width: 416
VWidth: 0
Flags: W
HStem: 0 64<155.221 320> 384 64<155.221 320> 620 20G<320 384>
VStem: 64 64<93.1695 354.831> 320 64<64 384 448 640>
LayerCount: 2
Fore
SplineSet
224 384 m 2
 128 384 128 319 128 235 c 2
 128 213 l 2
 128 129 128 64 224 64 c 2
 320 64 l 9
 320 384 l 17
 224 384 l 2
224 0 m 2
 65 0 64 116 64 207 c 2
 64 241 l 2
 64 332 65 448 224 448 c 2
 320 448 l 1
 320 640 l 25
 384 640 l 25
 384 0 l 1
 224 0 l 2
EndSplineSet
Validated: 1
EndChar
StartChar: e
Encoding: 101 101 7
Width: 560
VWidth: 0
Flags: W
HStem: 0 80<183.07 492> 236 80<135 412> 450 80<186.094 360.906>
VStem: 55 80<132.75 236 316 398.164> 412 80<316 398.164>
AnchorPoint: "bottom" 280 0 basechar 0
AnchorPoint: "top" 280 530 basechar 0
LayerCount: 2
Fore
SplineSet
135 316 m 1,0,-1
 412 316 l 1,1,2
 412 450 412 450 273.5 450 c 128,-1,3
 135 450 135 450 135 316 c 1,0,-1
135 236 m 1,4,5
 135 80 135 80 249 80 c 2,6,-1
 492 80 l 1,7,-1
 492 0 l 1,8,-1
 249 0 l 2,9,10
 55 0 55 0 55 236 c 2,11,-1
 55 314 l 2,12,13
 55 530 55 530 273.5 530 c 128,-1,14
 492 530 492 530 492 314 c 2,15,-1
 492 236 l 1,16,-1
 135 236 l 1,4,5
EndSplineSet
EndChar
StartChar: f
Encoding: 102 102 14
Width: 560
VWidth: 0
Flags: W
HStem: 0 21G<194 278> 370 80<68 194 278 436> 690 80<324.875 492>
VStem: 194 84<0 370 450 639.197>
AnchorPoint: "macron-below" 236 0 basechar 0
AnchorPoint: "bottom" 236 0 basechar 0
AnchorPoint: "middle-right" 436 265 basechar 0
AnchorPoint: "cedilla" 236 0 basechar 0
AnchorPoint: "ogonek" 236 0 basechar 0
AnchorPoint: "top" 284 770 basechar 0
AnchorPoint: "top-right" 492 770 basechar 0
LayerCount: 2
Fore
SplineSet
492 690 m 1,0,-1
 398 690 l 2,1,2
 278 690 278 690 278 538 c 2,3,-1
 278 450 l 1,4,-1
 436 450 l 1,5,-1
 436 370 l 1,6,-1
 278 370 l 1,7,-1
 278 0 l 1,8,-1
 194 0 l 1,9,-1
 194 370 l 1,10,-1
 68 370 l 1,11,-1
 68 450 l 1,12,-1
 194 450 l 1,13,-1
 194 538 l 2,14,15
 194 770 194 770 398 770 c 2,16,-1
 492 770 l 1,17,-1
 492 690 l 1,0,-1
EndSplineSet
Validated: 19457
EndChar
StartChar: g
Encoding: 103 103 18
Width: 560
VWidth: 0
Flags: W
HStem: -220 80<121 357.378> 0 80<191.352 407> 450 80<191.352 407>
VStem: 58 85<136.125 393.875> 407 85<-90.6445 0 80 450>
AnchorPoint: "macron-below" 280 -220 basechar 0
AnchorPoint: "bottom" 280 -220 basechar 0
AnchorPoint: "middle-right" 492 265 basechar 0
AnchorPoint: "top-right" 492 530 basechar 0
AnchorPoint: "ogonek" 328 -207 basechar 0
AnchorPoint: "cedilla" 280 -220 basechar 0
AnchorPoint: "top" 280 530 basechar 0
LayerCount: 2
Fore
SplineSet
407 0 m 1,0,1
 260 0 l 2,2,3
 58 0 58 0 58 242 c 2,4,-1
 58 288 l 2,5,6
 58 530 58 530 260 530 c 2,7,-1
 492 530 l 1,8,-1
 492 19 l 2,9,10
 492 -220 492 -220 280 -220 c 2,11,-1
 121 -220 l 1,12,-1
 121 -140 l 1,13,-1
 280 -140 l 2,14,15
 407 -140 407 -140 407 0 c 1,0,1
260 80 m 2,16,-1
 407 80 l 1,17,-1
 407 450 l 1,18,-1
 260 450 l 2,19,20
 143 450 143 450 143 288 c 2,21,-1
 143 242 l 2,22,23
 143 80 143 80 260 80 c 2,16,-1
EndSplineSet
Validated: 19457
EndChar
StartChar: h
Encoding: 104 104 4
Width: 416
VWidth: 0
Flags: W
HStem: 0 21G<64 128 320 384> 384 64<128 291.738> 620 20G<64 128>
VStem: 64 64<0 384 448 640> 320 64<0 354.401>
LayerCount: 2
Fore
SplineSet
320 235 m 2
 320 319 320 384 220 384 c 2
 128 384 l 1
 128 0 l 1
 64 0 l 1
 64 640 l 1
 128 640 l 1
 128 448 l 1
 223 448 l 2
 384 448 384 331 384 241 c 2
 384 0 l 1
 320 0 l 1
 320 235 l 2
EndSplineSet
Validated: 1
EndChar
StartChar: i
Encoding: 105 105 8
Width: 160
VWidth: 0
Flags: W
HStem: 0 21G<64 128> 428 20G<64 128> 576 64<64 128>
VStem: 64 64<0 448 576 640>
LayerCount: 2
Fore
SplineSet
64 448 m 29
 128 448 l 29
 128 0 l 29
 64 0 l 29
 64 448 l 29
64 640 m 29
 128 640 l 29
 128 576 l 29
 64 576 l 29
 64 640 l 29
EndSplineSet
Validated: 1
EndChar
StartChar: j
Encoding: 106 106 21
Width: 320
VWidth: 0
Flags: W
HStem: -192 64<0 167.35> 404 20G<192 256> 542 74<192 256>
VStem: 192 64<-103.086 424 542 616>
LayerCount: 2
Fore
SplineSet
192 616 m 25,0,-1
 256 616 l 1,1,-1
 256 522 l 1,2,-1
 192 522 l 1,3,-1
 192 616 l 25,0,-1
192 0 m 2,4,-1
 192 424 l 1,5,-1
 256 424 l 1,6,-1
 256 15 l 2,7,8
 256 -192 256 -192 96 -192 c 6,9,-1
 0 -192 l 5,10,-1
 0 -128 l 5,11,-1
 96 -128 l 6,12,13
 192 -128 192 -128 192 0 c 2,4,-1
EndSplineSet
EndChar
StartChar: k
Encoding: 107 107 22
Width: 560
VWidth: 0
Flags: W
HStem: 0 21G<68 148 400 492> 0 21G<68 148 400 492> 236 80<148 311.014> 510 20G<400 492> 750 20G<68 148>
VStem: 68 80<0 236 316 770> 412 80<0 106.615 435.363 530>
LayerCount: 2
Fore
SplineSet
358 278 m 1,0,1
 492 223 492 223 492 0 c 1,2,-1
 412 0 l 1,3,4
 388 236 388 236 228 236 c 2,5,-1
 148 236 l 1,6,-1
 148 0 l 1,7,-1
 68 0 l 1,8,-1
 68 770 l 1,9,-1
 148 770 l 1,10,-1
 148 316 l 1,11,-1
 228 316 l 2,12,13
 388 316 388 316 412 530 c 1,14,-1
 492 530 l 1,15,16
 492 333 492 333 358 278 c 1,0,1
EndSplineSet
EndChar
StartChar: l
Encoding: 108 108 5
Width: 192
VWidth: 0
Flags: W
HStem: 0 21G<64 128> 630 20G<64 128>
VStem: 64 64<0 650>
LayerCount: 2
Fore
SplineSet
64 0 m 9,0,-1
 64 650 l 1,1,-1
 128 650 l 1,2,-1
 128 0 l 17,3,4
 64 0 l 9,0,-1
EndSplineSet
Validated: 3073
EndChar
StartChar: m
Encoding: 109 109 3
Width: 704
VWidth: 0
Flags: W
HStem: 0 21G<54 118 320 384 586 650> 0 21G<54 118 320 384 586 650> 360 64<118 280.938 395.042 538.484>
VStem: 54 64<0 360> 320 64<0 317.948> 586 64<0 308.588>
CounterMasks: 1 1c
LayerCount: 2
Fore
SplineSet
467 360 m 0,0,1
 410 360 410 360 377 320 c 1,2,3
 384 275 384 275 384 211 c 2,4,-1
 384 0 l 1,5,-1
 320 0 l 1,6,-1
 320 211 l 2,7,8
 320 360 320 360 220 360 c 2,9,-1
 118 360 l 1,10,-1
 118 0 l 1,11,-1
 54 0 l 1,12,-1
 54 424 l 1,13,-1
 223 424 l 2,14,15
 303 424 303 424 341 376 c 1,16,17
 387 424 387 424 458 424 c 0,18,19
 650 424 650 424 650 210 c 2,20,-1
 650 0 l 1,21,-1
 586 0 l 1,22,-1
 586 211 l 2,23,24
 586 360 586 360 467 360 c 0,0,1
EndSplineSet
EndChar
StartChar: n
Encoding: 110 110 0
Width: 560
VWidth: 0
Flags: W
HStem: 0 21G<68 153 407 492> 450 80<153 350.727>
VStem: 68 85<0 450> 407 85<0 382.625>
AnchorPoint: "macron-below" 280 0 basechar 0
AnchorPoint: "bottom" 280 0 basechar 0
AnchorPoint: "middle-right" 492 265 basechar 0
AnchorPoint: "cedilla" 111 0 basechar 0
AnchorPoint: "ogonek" 449 0 basechar 0
AnchorPoint: "top-right" 492 530 basechar 0
AnchorPoint: "top" 280 530 basechar 0
LayerCount: 2
Fore
SplineSet
407 268 m 6,0,1
 407 450 407 450 278 450 c 6,2,-1
 153 450 l 5,3,-1
 153 0 l 5,4,-1
 68 0 l 5,5,-1
 68 530 l 5,6,-1
 278 530 l 6,7,8
 492 530 492 530 492 268 c 6,9,-1
 492 0 l 5,10,-1
 407 0 l 5,11,-1
 407 268 l 6,0,1
EndSplineSet
Validated: 19457
EndChar
StartChar: o
Encoding: 111 111 1
Width: 448
VWidth: 0
Flags: W
HStem: 0 65<148.142 299.858> 360 64<148.142 299.858>
VStem: 44 64<105.75 319.938> 340 64<105.75 319.938>
AnchorPoint: "bottom" 224 0 basechar 0
AnchorPoint: "top" 224 424 basechar 0
LayerCount: 2
Fore
SplineSet
340 188 m 2,0,-1
 340 239 l 2,1,2
 340 360 340 360 224 360 c 128,-1,3
 108 360 108 360 108 239 c 2,4,-1
 108 188 l 2,5,6
 108 65 108 65 224 65 c 128,-1,7
 340 65 340 65 340 188 c 2,0,-1
404 239 m 2,8,-1
 404 188 l 2,9,10
 404 0 404 0 224 0 c 128,-1,11
 44 0 44 0 44 188 c 2,12,-1
 44 239 l 2,13,14
 44 424 44 424 224 424 c 128,-1,15
 404 424 404 424 404 239 c 2,8,-1
EndSplineSet
EndChar
StartChar: p
Encoding: 112 112 13
Width: 448
VWidth: 0
Flags: W
HStem: 0 64<118 297.901> 360 64<118 297.901>
VStem: 54 64<-192 0 64 360> 340 64<106.783 317.217>
LayerCount: 2
Fore
SplineSet
223 64 m 6,0,1
 340 64 340 64 340 198 c 6,2,-1
 340 226 l 6,3,4
 340 360 340 360 223 360 c 6,5,-1
 118 360 l 5,6,-1
 118 64 l 5,7,-1
 223 64 l 6,0,1
223 424 m 6,8,9
 404 424 404 424 404 226 c 6,10,-1
 404 198 l 6,11,12
 404 0 404 0 223 0 c 6,13,-1
 118 0 l 5,14,-1
 118 -192 l 5,15,-1
 54 -192 l 5,16,-1
 54 424 l 5,17,-1
 223 424 l 6,8,9
EndSplineSet
EndChar
StartChar: q
Encoding: 113 113 16
Width: 448
VWidth: 0
Flags: W
HStem: 0 64<156.531 320> 384 64<156.531 320>
VStem: 64 64<92.0547 355.945> 320 64<-192 0 64 384>
LayerCount: 2
Fore
SplineSet
225 64 m 6,0,-1
 320 64 l 1,1,-1
 320 384 l 1,2,-1
 225 384 l 2,3,4
 197 384 197 384 178 375.5 c 128,-1,5
 159 367 159 367 149 356.5 c 128,-1,6
 139 346 139 346 134.5 323 c 128,-1,7
 130 300 130 300 129 283.5 c 128,-1,8
 128 267 128 267 128 235 c 2,9,-1
 128 213 l 2,10,11
 128 181 128 181 129 164.5 c 128,-1,12
 130 148 130 148 134.5 125 c 128,-1,13
 139 102 139 102 149 91.5 c 128,-1,14
 159 81 159 81 178 72.5 c 128,-1,15
 197 64 197 64 225 64 c 6,0,-1
225 448 m 6,16,-1
 384 448 l 1,17,-1
 384 -192 l 1,18,-1
 320 -192 l 1,19,-1
 320 0 l 1,20,-1
 225 0 l 2,21,22
 179 0 179 0 147 14 c 128,-1,23
 115 28 115 28 99.5 46 c 128,-1,24
 84 64 84 64 75.5 96 c 128,-1,25
 67 128 67 128 65.5 149.5 c 128,-1,26
 64 171 64 171 64 207 c 2,27,-1
 64 241 l 2,28,29
 64 277 64 277 65.5 298.5 c 128,-1,30
 67 320 67 320 75.5 352 c 128,-1,31
 84 384 84 384 99.5 402 c 128,-1,32
 115 420 115 420 147 434 c 128,-1,33
 179 448 179 448 225 448 c 6,16,-1
EndSplineSet
Validated: 19457
EndChar
StartChar: r
Encoding: 114 114 23
Width: 360
VWidth: 1024
Flags: W
HStem: 0 21G<64 128> 384 64<185.216 352>
VStem: 64 64<0 334.016 389 448>
LayerCount: 2
Fore
SplineSet
64 0 m 1
 64 448 l 1
 128 448 l 1
 128 389 l 2
 128 402 164 448 285 448 c 2
 352 448 l 1
 352 384 l 1
 284 384 l 2
 192 384 128 344 128 270 c 2
 128 0 l 1
 64 0 l 1
EndSplineSet
Validated: 1
EndChar
StartChar: s
Encoding: 115 115 17
Width: 416
VWidth: 0
Flags: W
HStem: -4 65<140.25 288.426> 256 64<130.449 287.402> 384 64<130.449 352>
VStem: 64 64<76.2697 128 327.564 376.436> 320 64<93.095 226.155>
LayerCount: 2
Fore
SplineSet
224 384 m 2
 183 384 128 383 128 352 c 0
 128 321 183 320 224 320 c 0
 368 320 383 211 384 160 c 0
 383 110 368 -4 224 -4 c 0
 133 -4 66 11 64 128 c 1
 128 128 l 1
 130 74 148 61 224 61 c 0
 308 61 320 129 320 161 c 0
 320 193 308 256 224 256 c 0
 148 256 64 256 64 352 c 0
 64 448 148 448 224 448 c 2
 352 448 l 1
 352 384 l 25
 224 384 l 2
EndSplineSet
Validated: 1
EndChar
StartChar: t
Encoding: 116 116 6
Width: 480
VWidth: 0
Flags: W
HStem: 0 80<288.613 455> 450 80<42 148 228 400> 750 20G<148 228>
VStem: 148 80<151.821 450 530 770>
LayerCount: 2
Fore
SplineSet
455 80 m 1,0,-1
 455 0 l 1,1,-1
 361 0 l 2,2,3
 148 0 148 0 148 259 c 2,4,-1
 148 450 l 1,5,-1
 42 450 l 1,6,-1
 42 530 l 1,7,-1
 148 530 l 1,8,-1
 148 770 l 1,9,-1
 228 770 l 1,10,-1
 228 530 l 1,11,-1
 400 530 l 1,12,-1
 400 450 l 1,13,-1
 228 450 l 1,14,-1
 228 266 l 2,15,16
 228 80 228 80 365 80 c 2,17,-1
 455 80 l 1,0,-1
EndSplineSet
Validated: 19457
EndChar
StartChar: u
Encoding: 117 117 9
Width: 560
VWidth: 0
Flags: W
HStem: 0 80<206.4 353.6> 510 20G<68 148 412 492>
VStem: 68 80<145.688 530> 412 80<149.476 530>
AnchorPoint: "bottom" 280 0 basechar 0
AnchorPoint: "top" 280 530 basechar 0
LayerCount: 2
Fore
SplineSet
412 530 m 25,0,-1
 492 530 l 1,1,-1
 492 255 l 2,2,3
 492 0 492 0 280 0 c 128,-1,4
 68 0 68 0 68 259 c 2,5,-1
 68 530 l 1,6,-1
 148 530 l 1,7,-1
 148 266 l 2,8,9
 148 80 148 80 280 80 c 128,-1,10
 412 80 412 80 412 266 c 2,11,-1
 412 530 l 25,0,-1
EndSplineSet
EndChar
StartChar: v
Encoding: 118 118 19
Width: 416
VWidth: 0
Flags: W
HStem: 0 21G<185.393 262.607> 428 20G<44 124.11 323.89 404>
LayerCount: 2
Fore
SplineSet
44 448 m 5
 118 448 l 5
 224 101 l 5
 330 448 l 5
 404 448 l 5
 256 0 l 29
 192 0 l 29
 44 448 l 5
EndSplineSet
Validated: 1
EndChar
StartChar: w
Encoding: 119 119 24
Width: 544
VWidth: 0
Flags: W
HStem: 0 64<156.262 256 320 448> 428 20G<64 128 256 320 448 512>
VStem: 64 64<93.5991 448> 256 64<64 448> 448 64<64 448>
CounterMasks: 1 38
LayerCount: 2
Fore
SplineSet
128 213 m 2
 128 129 128 64 228 64 c 2
 256 64 l 1
 256 192 256 320 256 448 c 1
 320 448 l 1
 320 320 320 192 320 64 c 9
 448 64 l 1
 448 448 l 1
 512 448 l 1
 512 0 l 1
 225 0 l 2
 64 0 64 117 64 207 c 2
 64 448 l 1
 128 448 l 1
 128 213 l 2
EndSplineSet
Validated: 1
EndChar
StartChar: x
Encoding: 120 120 25
Width: 416
VWidth: 0
Flags: W
HStem: 0 21G<54 139.163 308.837 394> 428 20G<44 129.648 318.352 404>
LayerCount: 2
Fore
SplineSet
184 224 m 1
 44 448 l 1
 118 448 l 1
 224 266 l 1
 330 448 l 1
 404 448 l 1
 264 224 l 1
 394 0 l 1
 320 0 l 1
 224 172 l 1
 128 0 l 1
 54 0 l 1
 184 224 l 1
EndSplineSet
Validated: 1
EndChar
StartChar: y
Encoding: 121 121 20
Width: 560
VWidth: 0
Flags: W
HStem: -220 80<121 357.378> 0 80<201.352 407> 510 20G<68 153 407 492>
VStem: 68 85<136.125 530> 407 85<-90.6445 0 80 530>
AnchorPoint: "macron-below" 280 -220 basechar 0
AnchorPoint: "bottom" 280 -220 basechar 0
AnchorPoint: "middle-right" 492 265 basechar 0
AnchorPoint: "top-right" 492 530 basechar 0
AnchorPoint: "ogonek" 317 -210 basechar 0
AnchorPoint: "cedilla" 280 -220 basechar 0
AnchorPoint: "top" 280 530 basechar 0
LayerCount: 2
Fore
SplineSet
153 530 m 25,0,-1
 153 242 l 2,1,2
 153 80 153 80 270 80 c 2,3,-1
 407 80 l 1,4,-1
 407 530 l 1,5,-1
 492 530 l 1,6,-1
 492 19 l 2,7,8
 492 -220 492 -220 280 -220 c 2,9,-1
 121 -220 l 1,10,-1
 121 -140 l 1,11,-1
 280 -140 l 2,12,13
 407 -140 407 -140 407 0 c 1,14,-1
 270 0 l 2,15,16
 68 0 68 0 68 242 c 2,17,-1
 68 530 l 25,18,-1
 153 530 l 25,0,-1
EndSplineSet
Validated: 19457
EndChar
StartChar: z
Encoding: 122 122 26
Width: 416
VWidth: 1024
Flags: W
HStem: 0 64<128 384> 384 64<64 320>
VStem: 64 64<64 90> 320 64<358 384>
LayerCount: 2
Fore
SplineSet
64 0 m 1
 64 112 l 1
 320 358 l 5
 320 384 l 1
 64 384 l 1
 64 448 l 1
 384 448 l 1
 384 336 l 1
 128 90 l 1
 128 64 l 1
 384 64 l 1
 384 0 l 1
 64 0 l 1
EndSplineSet
Validated: 1
EndChar
StartChar: braceleft
Encoding: 123 123 92
Width: 560
VWidth: 0
Flags: W
HStem: -80 80<372.196 492> 716 80<372.031 492>
VStem: 240 85<53.7998 179 538 662.717>
LayerCount: 2
Fore
SplineSet
325 506 m 1,0,-1
 172 359 l 1,1,-1
 325 210 l 1,2,-1
 325 161 l 2,3,4
 325 0 325 0 440 0 c 2,5,-1
 492 0 l 1,6,-1
 492 -80 l 1,7,-1
 440 -80 l 2,8,9
 240 -80 240 -80 240 179 c 1,10,-1
 68 359 l 1,11,-1
 240 538 l 1,12,13
 240 796 240 796 440 796 c 2,14,-1
 492 796 l 1,15,-1
 492 716 l 1,16,-1
 440 716 l 2,17,18
 325 716 325 716 325 556 c 2,19,-1
 325 506 l 1,0,-1
EndSplineSet
Validated: 19457
EndChar
StartChar: bar
Encoding: 124 124 82
Width: 240
VWidth: 1280
Flags: W
VStem: 78 84<-240 960>
LayerCount: 2
Fore
SplineSet
78 -240 m 1,0,-1
 78 960 l 1,1,-1
 162 960 l 1,2,-1
 162 -240 l 1,3,-1
 78 -240 l 1,0,-1
EndSplineSet
Validated: 19457
EndChar
StartChar: braceright
Encoding: 125 125 93
Width: 448
VWidth: 0
Flags: W
HStem: -65 65<54 158.156> 573 65<54 158.156>
VStem: 192 64<37.832 143 430 535.168>
LayerCount: 2
Fore
SplineSet
192 405 m 1,0,-1
 192 445 l 2,1,2
 192 573 192 573 96 573 c 2,3,-1
 54 573 l 1,4,-1
 54 638 l 1,5,-1
 96 638 l 2,6,7
 256 638 256 638 256 430 c 1,8,-1
 394 287 l 1,9,-1
 256 143 l 1,10,11
 256 -65 256 -65 96 -65 c 2,12,-1
 54 -65 l 1,13,-1
 54 0 l 1,14,-1
 96 0 l 2,15,16
 192 0 192 0 192 129 c 2,17,-1
 192 168 l 1,18,-1
 310 287 l 1,19,-1
 192 405 l 1,0,-1
EndSplineSet
EndChar
StartChar: asciitilde
Encoding: 126 126 100
Width: 512
VWidth: 0
GlyphClass: 2
Flags: W
HStem: 225 64<277.912 380.602> 289 65<131.398 237.887>
VStem: 54 64<225 275.265> 394 64<303.735 354>
AnchorPoint: "top" 256 192 mark 0
LayerCount: 2
Fore
SplineSet
458 354 m 1,0,1
 458 225 458 225 320 225 c 0,2,3
 297 225 297 225 252.5 257 c 128,-1,4
 208 289 208 289 192 289 c 0,5,6
 118 289 118 289 118 225 c 1,7,-1
 54 225 l 1,8,9
 54 354 54 354 192 354 c 0,10,11
 222 354 222 354 264 321.5 c 128,-1,12
 306 289 306 289 320 289 c 0,13,14
 394 289 394 289 394 354 c 1,15,-1
 458 354 l 1,0,1
EndSplineSet
EndChar
StartChar: cent
Encoding: 162 162 321
Width: 560
VWidth: 0
UnlinkRmOvrlpSave: 1
Flags: W
HStem: -5 80<177.328 386.603> 455 80<177.328 386.603>
VStem: 58 85<114.187 415.813> 238 84<-85 615> 417 85<106.771 152 378 423.229>
CounterMasks: 1 38
LayerCount: 2
Fore
SplineSet
238 615 m 1
 322 615 l 1
 322 -85 l 1
 238 -85 l 1
 238 615 l 1
EndSplineSet
Refer: 10 99 N 1 0 0 1 0 0 2
EndChar
StartChar: yen
Encoding: 165 165 320
Width: 640
VWidth: 0
Flags: W
HStem: 80 80<68 278 362 572> 262 80<68 278 362 572> 696 20G<68 153 487 572>
VStem: 68 85<612 716> 278 84<-80 80 160 262 342 366> 487 85<612 716>
CounterMasks: 1 1c
LayerCount: 2
Fore
SplineSet
320 437 m 1,0,-1
 487 612 l 1,1,-1
 487 716 l 1,2,-1
 572 716 l 1,3,-1
 572 582 l 1,4,-1
 362 366 l 1,5,-1
 362 342 l 1,6,-1
 572 342 l 1,7,-1
 572 262 l 1,8,-1
 362 262 l 1,9,-1
 362 160 l 1,10,-1
 572 160 l 1,11,-1
 572 80 l 1,12,-1
 362 80 l 1,13,-1
 362 -80 l 1,14,-1
 278 -80 l 1,15,-1
 278 80 l 1,16,-1
 68 80 l 1,17,-1
 68 160 l 1,18,-1
 278 160 l 1,19,-1
 278 262 l 1,20,-1
 68 262 l 1,21,-1
 68 342 l 1,22,-1
 278 342 l 1,23,-1
 278 366 l 1,24,-1
 68 582 l 1,25,-1
 68 716 l 1,26,-1
 153 716 l 1,27,-1
 153 612 l 1,28,-1
 320 437 l 1,0,-1
EndSplineSet
Validated: 19457
EndChar
StartChar: dieresis
Encoding: 168 168 110
Width: 320
GlyphClass: 2
Flags: W
HStem: 551 65<54 118 202 266>
VStem: 54 64<551 616> 202 64<551 616>
AnchorPoint: "top" 160 512.084 mark 0
LayerCount: 2
Fore
SplineSet
54 551 m 1,0,-1
 54 616 l 1,1,-1
 118 616 l 1,2,-1
 118 551 l 1,3,-1
 54 551 l 1,0,-1
202 551 m 1,4,-1
 202 616 l 1,5,-1
 266 616 l 1,6,-1
 266 551 l 1,7,-1
 202 551 l 1,4,-1
EndSplineSet
EndChar
StartChar: copyright
Encoding: 169 169 622
Width: 720
VWidth: 0
Flags: W
HStem: -6 81<256.235 463.765> 176 80<322.602 408.51> 462 80<322.602 408.51> 641 80<256.235 463.765>
VStem: 58 85<203.351 517.164> 218 85<273.846 444.154> 420 85<266.413 303 415 451.587> 577 85<202.74 517.164>
LayerCount: 2
Fore
SplineSet
366 176 m 1,0,1
 218 176 218 176 218 359 c 256,2,3
 218 542 218 542 366 542 c 1,4,5
 486 542 486 542 505 415 c 1,6,-1
 420 415 l 1,7,8
 408 462 408 462 366 462 c 1,9,10
 303 462 303 462 303 359 c 256,11,12
 303 256 303 256 366 256 c 1,13,14
 408 256 408 256 420 303 c 1,15,-1
 505 303 l 1,16,17
 486 176 486 176 366 176 c 1,0,1
577 337 m 2,18,-1
 577 379 l 2,19,20
 577 641 577 641 360 641 c 128,-1,21
 143 641 143 641 143 379 c 2,22,-1
 143 337 l 2,23,24
 143 75 143 75 360 75 c 128,-1,25
 577 75 577 75 577 337 c 2,18,-1
662 379 m 2,26,-1
 662 336 l 2,27,28
 662 -6 662 -6 360 -6 c 128,-1,29
 58 -6 58 -6 58 337 c 2,30,-1
 58 379 l 2,31,32
 58 721 58 721 360 721 c 128,-1,33
 662 721 662 721 662 379 c 2,26,-1
EndSplineSet
Validated: 19457
EndChar
StartChar: uni00AD
Encoding: 173 173 189
Width: 320
Flags: W
HStem: 263 64<54 266>
VStem: 54 212<263 327>
LayerCount: 2
Fore
SplineSet
54 263 m 1,0,-1
 54 327 l 1,1,-1
 266 327 l 1,2,-1
 266 263 l 1,3,-1
 54 263 l 1,0,-1
EndSplineSet
EndChar
StartChar: registered
Encoding: 174 174 623
Width: 720
VWidth: 0
Flags: W
HStem: -6 81<256.235 463.765> 302 81<303 398.725> 462 80<303 423.058> 641 80<256.235 463.765>
VStem: 58 85<203.351 517.164> 218 85<176 302 383 462> 429 85<176 265.588 389.709 454.129> 577 85<202.74 517.164>
LayerCount: 2
Fore
SplineSet
577 337 m 2,0,-1
 577 379 l 2,1,2
 577 641 577 641 360 641 c 128,-1,3
 143 641 143 641 143 379 c 2,4,-1
 143 337 l 2,5,6
 143 75 143 75 360 75 c 128,-1,7
 577 75 577 75 577 337 c 2,0,-1
  Spiro
    577 337 [
    577 379 ]
    522.75 575.5 o
    360 641 o
    197.25 575.5 o
    143 379 [
    143 337 ]
    197.25 140.5 o
    360 75 o
    522.75 140.5 o
    0 0 z
  EndSpiro
662 379 m 2,8,-1
 662 336 l 2,9,10
 662 -6 662 -6 360 -6 c 128,-1,11
 58 -6 58 -6 58 337 c 2,12,-1
 58 379 l 2,13,14
 58 721 58 721 360 721 c 128,-1,15
 662 721 662 721 662 379 c 2,8,-1
  Spiro
    662 379 [
    662 336 ]
    586.5 79.5 o
    360 -6 o
    133.5 79.75 o
    58 337 [
    58 379 ]
    133.5 635.5 o
    360 721 o
    586.5 635.5 o
    0 0 z
  EndSpiro
303 302 m 1,16,-1
 303 176 l 1,17,-1
 218 176 l 1,18,-1
 218 542 l 1,19,-1
 365 542 l 2,20,21
 514 542 514 542 514 422 c 0,22,23
 514 356 514 356 459 326 c 1,24,25
 479 304 479 304 487 283 c 0,26,27
 511 227 511 227 511 176 c 1,28,-1
 426 176 l 1,29,30
 422 231 422 231 408 263 c 0,31,32
 396 291 396 291 371 302 c 9,33,-1
 303 302 l 1,16,-1
365 383 m 2,34,35
 429 383 429 383 429 422 c 0,36,37
 429 462 429 462 365 462 c 2,38,-1
 303 462 l 1,39,-1
 303 383 l 1,40,-1
 365 383 l 2,34,35
EndSplineSet
Validated: 19457
EndChar
StartChar: macron
Encoding: 175 175 153
Width: 416
VWidth: 0
Flags: W
HStem: 576 64<64 384>
VStem: 64 320<576 640>
AnchorPoint: "top" 224 512 mark 0
LayerCount: 2
Fore
SplineSet
64 640 m 25
 384 640 l 25
 384 576 l 25
 64 576 l 25
 64 640 l 25
EndSplineSet
Validated: 1
EndChar
StartChar: degree
Encoding: 176 176 192
Width: 384
VWidth: 0
Flags: W
HStem: 360 64<139.211 244.789> 552 64<139.211 244.789>
VStem: 64 64<435.211 540.789> 256 64<435.211 540.789>
LayerCount: 2
Fore
SplineSet
64 488 m 128,-1,1
 64 616 64 616 192 616 c 128,-1,2
 320 616 320 616 320 488 c 128,-1,3
 320 360 320 360 192 360 c 128,-1,0
 64 360 64 360 64 488 c 128,-1,1
128 488 m 128,-1,5
 128 424 128 424 192 424 c 128,-1,6
 256 424 256 424 256 488 c 128,-1,7
 256 552 256 552 192 552 c 128,-1,4
 128 552 128 552 128 488 c 128,-1,5
EndSplineSet
EndChar
StartChar: plusminus
Encoding: 177 177 188
Width: 448
Flags: W
HStem: 63 65<54 394> 313 64<54 192 256 394>
VStem: 192 64<175 313 377 515>
LayerCount: 2
Fore
SplineSet
192 175 m 1,0,-1
 192 313 l 1,1,-1
 54 313 l 1,2,-1
 54 377 l 1,3,-1
 192 377 l 1,4,-1
 192 515 l 1,5,-1
 256 515 l 1,6,-1
 256 377 l 1,7,-1
 394 377 l 1,8,-1
 394 313 l 1,9,-1
 256 313 l 1,10,-1
 256 175 l 1,11,-1
 192 175 l 1,0,-1
54 63 m 1,12,-1
 54 128 l 1,13,-1
 394 128 l 1,14,-1
 394 63 l 1,15,-1
 54 63 l 1,12,-1
EndSplineSet
EndChar
StartChar: uni00B2
Encoding: 178 178 634
Width: 480
VWidth: 0
Flags: W
HStem: 391 70<143 412> 614 70<171.645 339.935> 780 70<88 339.935>
VStem: 68 75<461 585.329> 347 75<693.733 770.267>
LayerCount: 2
Fore
SplineSet
68 391 m 257,0,-1
 68 493 l 258,1,2
 68 684 68 684 225 684 c 258,3,-1
 282 684 l 258,4,5
 347 684 347 684 347 732 c 256,6,7
 347 780 347 780 282 780 c 258,8,-1
 88 780 l 257,9,-1
 88 850 l 257,10,-1
 282 850 l 258,11,12
 422 850 422 850 422 732 c 256,13,14
 422 614 422 614 282 614 c 258,15,-1
 225 614 l 258,16,17
 143 614 143 614 143 493 c 258,18,-1
 143 461 l 257,19,-1
 412 461 l 257,20,-1
 412 391 l 257,21,-1
 68 391 l 257,0,-1
EndSplineSet
Validated: 19457
EndChar
StartChar: uni00B3
Encoding: 179 179 635
Width: 480
VWidth: 0
Flags: W
HStem: 386 70<146.901 329.578> 510 20G<58 133> 614 70<168 332.718> 780 70<88 339.935>
VStem: 58 75<470.41 530> 347 75<469.936 599.364 692.947 770.267>
LayerCount: 2
Fore
SplineSet
422 535 m 256,0,1
 422 386 422 386 282 386 c 258,2,-1
 198 386 l 258,3,4
 58 386 58 386 58 530 c 257,5,-1
 133 530 l 257,6,7
 133 456 133 456 198 456 c 258,8,-1
 282 456 l 258,9,10
 347 456 347 456 347 535 c 256,11,12
 347 614 347 614 282 614 c 258,13,-1
 168 614 l 257,14,-1
 168 684 l 257,15,-1
 282 684 l 258,16,17
 347 684 347 684 347 732 c 256,18,19
 347 780 347 780 282 780 c 258,20,-1
 88 780 l 257,21,-1
 88 850 l 257,22,-1
 282 850 l 258,23,24
 422 850 422 850 422 732 c 256,25,26
 422 658 422 658 373 644 c 257,27,28
 422 626 422 626 422 535 c 256,0,1
EndSplineSet
Validated: 19457
EndChar
StartChar: acute
Encoding: 180 180 95
Width: 320
GlyphClass: 2
Flags: W
HStem: 424 192
VStem: 54 212
AnchorPoint: "top" 160 360 mark 0
LayerCount: 2
Fore
SplineSet
102 424 m 1,0,-1
 54 471 l 1,1,-1
 218 616 l 1,2,-1
 266 568 l 1,3,-1
 102 424 l 1,0,-1
EndSplineSet
EndChar
StartChar: uni00B9
Encoding: 185 185 636
Width: 480
VWidth: 1280
Flags: W
HStem: 391 70<68 203 277 412>
VStem: 203 74<461 750>
LayerCount: 2
Fore
SplineSet
277 461 m 1,0,-1
 412 461 l 1,1,-1
 412 391 l 1,2,-1
 68 391 l 1,3,-1
 68 461 l 1,4,-1
 203 461 l 1,5,-1
 203 750 l 1,6,-1
 122 663 l 1,7,-1
 68 710 l 1,8,-1
 198 850 l 1,9,-1
 277 850 l 1,10,-1
 277 461 l 1,0,-1
EndSplineSet
Validated: 3073
EndChar
StartChar: questiondown
Encoding: 191 191 119
Width: 448
Flags: W
HStem: -192 64<91.6821 394> 47 64<91.6821 202> 296 128<202 266>
VStem: 0 64<-101.364 18.9994> 202 64<111 215 296 424>
LayerCount: 2
Fore
SplineSet
266 424 m 1,0,-1
 266 296 l 1,1,-1
 202 296 l 1,2,-1
 202 424 l 1,3,-1
 266 424 l 1,0,-1
202 215 m 1,4,-1
 266 215 l 1,5,-1
 266 47 l 1,6,-1
 170 47 l 2,7,8
 64 47 64 47 64 -42 c 0,9,10
 64 -128 64 -128 170 -128 c 2,11,-1
 394 -128 l 1,12,-1
 394 -192 l 1,13,-1
 170 -192 l 2,14,15
 0 -192 0 -192 0 -42 c 0,16,17
 0 111 0 111 170 111 c 2,18,-1
 202 111 l 1,19,-1
 202 215 l 1,4,-1
EndSplineSet
EndChar
StartChar: AE
Encoding: 198 198 588
Width: 960
VWidth: 0
Flags: W
HStem: 0 80<523 880> 236 80<165 438> 329 80<523 795> 636 80<221.273 438 523 880>
VStem: 80 85<0 236 316 577.479> 438 85<80 236 316 329 409 636>
AnchorPoint: "middle-right" 880 358 basechar 0
AnchorPoint: "top-right" 880 716 basechar 0
AnchorPoint: "top" 480 716 basechar 0
AnchorPoint: "ogonek" 840 0 basechar 0
AnchorPoint: "cedilla" 480 0 basechar 0
AnchorPoint: "bottom" 480 0 basechar 0
AnchorPoint: "macron-below" 480 0 basechar 0
LayerCount: 2
Fore
SplineSet
294 636 m 2,0,1
 165 636 165 636 165 470 c 2,2,-1
 165 316 l 1,3,-1
 438 316 l 25,4,5
 438 636 l 9,6,-1
 294 636 l 2,0,1
294 716 m 2,7,-1
 880 716 l 1,8,-1
 880 636 l 1,9,-1
 523 636 l 1,10,-1
 523 409 l 1,11,-1
 795 409 l 1,12,-1
 795 329 l 1,13,-1
 523 329 l 1,14,-1
 523 80 l 1,15,-1
 880 80 l 1,16,-1
 880 0 l 1,17,-1
 438 0 l 1,18,-1
 438 236 l 1,19,-1
 165 236 l 1,20,-1
 165 0 l 1,21,-1
 80 0 l 1,22,-1
 80 470 l 2,23,24
 80 716 80 716 294 716 c 2,7,-1
EndSplineSet
Validated: 19457
EndChar
StartChar: Eth
Encoding: 208 208 191
Width: 544
VWidth: 0
Flags: W
HStem: 0 64<192 420.779> 256.095 64.0049<64 128 192 320> 512 64<192 329.594>
VStem: 128 64<64 256.095 320.149 512> 448 64<93.1695 360.826>
LayerCount: 2
Fore
SplineSet
128 576 m 1
 260 576 l 2
 419 576 512 410 512 249 c 2
 512 207 l 2
 512 116 511 0 352 0 c 2
 128 0 l 1
 128 256.142089844 l 1
 64 256.189453125 l 1
 64 320.19921875 l 1
 128 320.149414062 l 1
 128 576 l 1
352 64 m 2
 448 64 448 129 448 213 c 2
 448 243 l 2
 448 397 356 512 260 512 c 2
 192 512 l 1
 192 320.099609375 l 1
 320 320 l 1
 320 256 l 1
 192 256.094726562 l 1
 192 64 l 1
 352 64 l 2
EndSplineSet
Validated: 1
EndChar
StartChar: multiply
Encoding: 215 215 313
Width: 416
VWidth: 0
Flags: W
HStem: 148 281
VStem: 84 280
LayerCount: 2
Fore
SplineSet
84 192 m 25
 182 289 l 25
 84 384 l 25
 128 429 l 25
 226 328.021484375 l 25
 320 428 l 25
 364 384 l 25
 266 289 l 25
 364 192 l 25
 320 148 l 25
 224 247.0234375 l 25
 128 148 l 25
 84 192 l 25
EndSplineSet
EndChar
StartChar: Oslash
Encoding: 216 216 595
Width: 640
VWidth: 0
UnlinkRmOvrlpSave: 1
Flags: W
HStem: -7 80<236.058 403.942> 643 80<236.058 403.942> 703 20G<476.219 582>
VStem: 58 85<187.126 529.305> 497 85<187.557 529.305>
AnchorPoint: "cedilla" 320 0 basechar 0
AnchorPoint: "top" 320 716 basechar 0
AnchorPoint: "ogonek" 378 10 basechar 0
AnchorPoint: "top-right" 572 716 basechar 0
AnchorPoint: "middle-right" 572 358 basechar 0
AnchorPoint: "bottom" 320 0 basechar 0
AnchorPoint: "macron-below" 320 0 basechar 0
LayerCount: 2
Fore
SplineSet
488 723 m 1
 582 723 l 1
 152 -7 l 1
 58 -7 l 1
 488 723 l 1
EndSplineSet
Refer: 42 79 N 1 0 0 1 0 0 2
EndChar
StartChar: ae
Encoding: 230 230 570
Width: 914
VWidth: 0
Flags: W
HStem: -10 80<169.097 366.446> 0 80<535.359 846> 236 80<169.097 411 492 766> 450 80<148 370.812 535.307 720.725>
VStem: 58 81<97.6732 208.327> 412 80<129.359 236 316 403.384> 766 80<316 403.384>
AnchorPoint: "macron-below" 457 0 basechar 0
AnchorPoint: "top" 457 530 basechar 0
AnchorPoint: "ogonek" 806 0 basechar 0
AnchorPoint: "cedilla" 280 0 basechar 0
AnchorPoint: "top-right" 846 530 basechar 0
AnchorPoint: "middle-right" 846 265 basechar 0
AnchorPoint: "bottom" 457 0 basechar 0
LayerCount: 2
Fore
SplineSet
264 70 m 2,0,1
 301 70 l 2,2,3
 412 70 412 70 412 236 c 1,4,5
 264 236 l 2,6,7
 139 236 139 236 139 153 c 128,-1,8
 139 70 139 70 264 70 c 2,0,1
301 -10 m 2,9,-1
 264 -10 l 2,10,11
 58 -10 58 -10 58 153 c 128,-1,12
 58 316 58 316 264 316 c 2,13,-1
 411 316 l 1,14,15
 411 450 411 450 299 450 c 2,16,-1
 148 450 l 1,17,-1
 148 530 l 1,18,-1
 299 530 l 2,19,20
 406 530 406 530 453 465 c 1,21,22
 507 535 507 535 629 535 c 0,23,24
 846 535 846 535 846 314 c 2,25,-1
 846 236 l 1,26,-1
 492 236 l 1,27,28
 492 80 492 80 603 80 c 2,29,-1
 846 80 l 1,30,-1
 846 0 l 1,31,-1
 603 0 l 2,32,33
 502 0 502 0 454 66 c 1,34,35
 407 -10 407 -10 301 -10 c 2,9,-1
492 316 m 1,36,-1
 766 316 l 1,37,38
 766 455 766 455 629 455 c 128,-1,39
 492 455 492 455 492 316 c 1,36,-1
EndSplineSet
Validated: 3073
EndChar
StartChar: oslash
Encoding: 248 248 597
Width: 560
VWidth: 0
Flags: W
HStem: -5 81<212.789 366.517> 455 80<193.483 347.196>
VStem: 58 80<146.28 396.661> 422 80<135.684 385.902>
AnchorPoint: "top" 280 530 basechar 0
AnchorPoint: "cedilla" 280 0 basechar 0
AnchorPoint: "ogonek" 332 10 basechar 0
AnchorPoint: "top-right" 492 530 basechar 0
AnchorPoint: "middle-right" 492 265 basechar 0
AnchorPoint: "bottom" 280 0 basechar 0
AnchorPoint: "macron-below" 280 0 basechar 0
LayerCount: 2
Fore
SplineSet
502 299 m 2,0,-1
 502 235 l 2,1,2
 502 -5 502 -5 280 -5 c 0,3,4
 213 -5 213 -5 166 17 c 1,5,-1
 152 -5 l 1,6,-1
 58 -5 l 1,7,-1
 104 66 l 1,8,9
 58 126 58 126 58 235 c 2,10,-1
 58 299 l 2,11,12
 58 535 58 535 280 535 c 0,13,14
 347 535 347 535 394 513 c 1,15,-1
 408 535 l 1,16,-1
 502 535 l 1,17,-1
 456 465 l 1,18,19
 502 406 502 406 502 299 c 2,0,-1
422 235 m 2,20,-1
 422 299 l 2,21,22
 422 352 422 352 406 387 c 1,23,-1
 212 88 l 1,24,25
 240 76 240 76 280 76 c 0,26,27
 422 76 422 76 422 235 c 2,20,-1
348 443 m 1,28,29
 319 455 319 455 280 455 c 0,30,31
 138 455 138 455 138 299 c 2,32,-1
 138 235 l 2,33,34
 138 180 138 180 155 144 c 1,35,-1
 348 443 l 1,28,29
EndSplineSet
Validated: 3073
EndChar
StartChar: dcroat
Encoding: 273 273 604
Width: 560
VWidth: 0
Flags: W
HStem: 0 80<199.607 412> 450 80<196.687 412> 636 80<312 412 492 592> 750 20G<412 492>
VStem: 58 80<146.545 388.73> 412 80<80 450 530 636 716 770>
LayerCount: 2
Fore
SplineSet
281 0 m 2,0,1
 58 0 58 0 58 250 c 2,2,-1
 58 289 l 2,3,4
 58 530 58 530 281 530 c 2,5,-1
 412 530 l 1,6,-1
 412 636 l 1,7,-1
 312 636 l 1,8,-1
 312 716 l 1,9,-1
 412 716 l 1,10,-1
 412 770 l 1,11,-1
 492 770 l 1,12,-1
 492 716 l 1,13,-1
 592 716 l 1,14,-1
 592 636 l 1,15,-1
 492 636 l 1,16,-1
 492 0 l 1,17,-1
 281 0 l 2,0,1
281 450 m 2,18,19
 138 450 138 450 138 289 c 2,20,-1
 138 250 l 2,21,22
 138 80 138 80 281 80 c 2,23,-1
 412 80 l 1,24,-1
 412 450 l 1,25,-1
 281 450 l 2,18,19
EndSplineSet
Validated: 3073
EndChar
StartChar: Hbar
Encoding: 294 294 600
Width: 800
VWidth: 1280
UnlinkRmOvrlpSave: 1
Flags: W
HStem: 0 21G<148 233 567 652> 329 80<233 567> 556 80<68 732> 696 20G<148 233 567 652>
VStem: 148 85<0 329 409 716> 567 85<0 329 409 716>
LayerCount: 2
Fore
SplineSet
68 636 m 1
 732 636 l 1
 732 556 l 1
 68 556 l 1
 68 636 l 1
EndSplineSet
Refer: 37 72 N 1 0 0 1 80 0 2
EndChar
StartChar: hbar
Encoding: 295 295 603
Width: 560
VWidth: 0
UnlinkRmOvrlpSave: 1
Flags: W
HStem: 0 21G<68 153 407 492> 450 80<153 347.426> 636 80<-32 253> 750 20G<68 153>
VStem: 68 85<0 450 530 770> 407 85<0 382.625>
LayerCount: 2
Fore
SplineSet
-32 716 m 1
 253 716 l 1
 253 636 l 1
 -32 636 l 1
 -32 716 l 1
EndSplineSet
Refer: 4 104 N 1 0 0 1 0 0 2
EndChar
StartChar: dotlessi
Encoding: 305 305 150
Width: 160
VWidth: 0
Flags: W
HStem: 0 21G<64 128> 428 20G<64 128>
VStem: 64 64<0 448>
AnchorPoint: "bottom" 96 5.68434e-014 basechar 0
AnchorPoint: "top" 97 448.132 basechar 0
LayerCount: 2
Fore
SplineSet
64 448 m 25
 128 448 l 25
 128 0 l 25
 64 0 l 25
 64 448 l 25
EndSplineSet
EndChar
StartChar: Lslash
Encoding: 321 321 601
Width: 720
VWidth: 1280
UnlinkRmOvrlpSave: 1
Flags: W
HStem: 0 80<233 652> 696 20G<148 233>
VStem: 148 85<80 716>
LayerCount: 2
Fore
SplineSet
323 519 m 1
 323 419 l 1
 58 219 l 1
 58 319 l 1
 323 519 l 1
EndSplineSet
Refer: 41 76 N 1 0 0 1 80 0 2
EndChar
StartChar: lslash
Encoding: 322 322 602
Width: 216
VWidth: 1280
Flags: W
HStem: 0 21G<68 148> 515 20G<219.831 248> 750 20G<68 148>
VStem: 68 80<0 306 464 770>
LayerCount: 2
Fore
SplineSet
-32 235 m 1,0,-1
 -32 335 l 1,1,-1
 68 406 l 1,2,-1
 68 770 l 1,3,-1
 148 770 l 1,4,-1
 148 464 l 1,5,-1
 248 535 l 1,6,-1
 248 435 l 1,7,-1
 148 364 l 1,8,-1
 148 0 l 1,9,-1
 68 0 l 1,10,-1
 68 306 l 1,11,-1
 -32 235 l 1,0,-1
EndSplineSet
Validated: 3073
EndChar
StartChar: OE
Encoding: 338 338 592
Width: 904
VWidth: 0
Flags: W
HStem: 0 80<229.438 412 492 836> 329 80<492 744> 636 80<229.438 412 492 836>
VStem: 58 80<191.111 525.319> 412 80<80 329 409 636>
LayerCount: 2
Fore
SplineSet
412 636 m 25,0,-1
 315 636 l 2,1,2
 138 636 138 636 138 379 c 2,3,-1
 138 338 l 2,4,5
 138 80 138 80 315 80 c 2,6,-1
 412 80 l 25,7,-1
 412 636 l 25,0,-1
315 0 m 2,8,9
 58 0 58 0 58 338 c 2,10,-1
 58 379 l 2,11,12
 58 716 58 716 315 716 c 2,13,-1
 836 716 l 1,14,-1
 836 636 l 1,15,-1
 492 636 l 1,16,-1
 492 409 l 1,17,-1
 744 409 l 1,18,-1
 744 329 l 1,19,-1
 492 329 l 1,20,-1
 492 80 l 1,21,-1
 836 80 l 1,22,-1
 836 0 l 1,23,-1
 315 0 l 2,8,9
EndSplineSet
Validated: 3073
EndChar
StartChar: oe
Encoding: 339 339 591
Width: 914
VWidth: 0
Flags: W
HStem: -5 81<193.656 357.945 540.338 846> 236 80<492 766> 455 80<193.656 357.641 542.287 714.34>
VStem: 58 80<135.684 396.661> 412 80<135.043 236 316 397.071> 766 80<316 403.384>
CounterMasks: 1 1c
LayerCount: 2
Fore
SplineSet
492 316 m 1,0,-1
 766 316 l 1,1,2
 766 455 766 455 629 455 c 128,-1,3
 492 455 492 455 492 316 c 1,0,-1
450 461 m 1,4,5
 503 535 503 535 629 535 c 0,6,7
 846 535 846 535 846 314 c 2,8,-1
 846 236 l 1,9,-1
 492 236 l 1,10,11
 492 80 492 80 603 80 c 2,12,-1
 846 80 l 1,13,-1
 846 0 l 1,14,-1
 603 0 l 2,15,16
 498 0 498 0 451 71 c 1,17,18
 398 -5 398 -5 275 -5 c 0,19,20
 58 -5 58 -5 58 235 c 2,21,-1
 58 299 l 2,22,23
 58 535 58 535 275 535 c 0,24,25
 397 535 397 535 450 461 c 1,4,5
412 299 m 2,26,27
 412 455 412 455 275 455 c 128,-1,28
 138 455 138 455 138 299 c 2,29,-1
 138 235 l 2,30,31
 138 76 138 76 275 76 c 128,-1,32
 412 76 412 76 412 235 c 2,33,-1
 412 236 l 1,34,-1
 412 299 l 2,26,27
EndSplineSet
Validated: 3073
EndChar
StartChar: Tbar
Encoding: 358 358 605
Width: 720
VWidth: 1280
UnlinkRmOvrlpSave: 1
Flags: W
HStem: 0 21G<318 402> 329 80<218 502> 636 80<68 318 402 652>
VStem: 318 84<0 636>
LayerCount: 2
Fore
SplineSet
218 409 m 1
 502 409 l 1
 502 329 l 1
 218 329 l 1
 218 409 l 1
EndSplineSet
Refer: 47 84 N 1 0 0 1 0 0 2
Validated: 101381
EndChar
StartChar: tbar
Encoding: 359 359 606
Width: 480
VWidth: 0
Flags: W
HStem: 0 80<280.613 446> 279 80<34 140 220 392> 450 80<34 140 220 392> 750 20G<140 220>
VStem: 140 80<151.821 279 359 450 530 770>
LayerCount: 2
Fore
SplineSet
446 80 m 1,0,-1
 446 0 l 1,1,-1
 353 0 l 2,2,3
 140 0 140 0 140 259 c 2,4,-1
 140 279 l 1,5,-1
 34 279 l 1,6,-1
 34 359 l 1,7,-1
 140 359 l 1,8,-1
 140 450 l 1,9,-1
 34 450 l 1,10,-1
 34 530 l 1,11,-1
 140 530 l 1,12,-1
 140 770 l 1,13,-1
 220 770 l 1,14,-1
 220 530 l 1,15,-1
 392 530 l 1,16,-1
 392 450 l 1,17,-1
 220 450 l 1,18,-1
 220 359 l 1,19,-1
 392 359 l 1,20,-1
 392 279 l 1,21,-1
 220 279 l 1,22,-1
 220 266 l 2,23,24
 220 80 220 80 357 80 c 2,25,-1
 446 80 l 1,0,-1
EndSplineSet
Validated: 3073
EndChar
StartChar: uni0186
Encoding: 390 390 585
Width: 640
VWidth: 0
Flags: W
HStem: -5 80<180.734 441.289> 641 80<180.734 441.182>
VStem: 58 82<118.873 169 547 597.127> 492 80<132.153 580.78>
LayerCount: 2
Fore
SplineSet
250 -5 m 2,0,1
 86 -5 86 -5 58 169 c 1,2,-1
 140 169 l 1,3,4
 163 75 163 75 250 75 c 10,5,-1
 374 75 l 18,6,7
 492 75 492 75 492 246 c 10,8,-1
 492 461 l 18,9,10
 492 641 492 641 374 641 c 10,11,-1
 250 641 l 18,12,13
 163 641 163 641 140 547 c 1,14,-1
 58 547 l 1,15,16
 86 721 86 721 250 721 c 2,17,-1
 374 721 l 18,18,19
 572 721 572 721 572 461 c 10,20,-1
 572 246 l 18,21,22
 572 -5 572 -5 374 -5 c 10,23,-1
 250 -5 l 2,0,1
EndSplineSet
Validated: 3073
EndChar
StartChar: uni018E
Encoding: 398 398 584
Width: 640
VWidth: 1280
Flags: W
HStem: 0 80<68 487> 329 80<153 487> 636 80<68 487>
VStem: 487 85<80 329 409 636>
LayerCount: 2
Fore
SplineSet
572 0 m 1,0,-1
 68 0 l 1,1,-1
 68 80 l 1,2,-1
 487 80 l 1,3,-1
 487 329 l 1,4,-1
 153 329 l 1,5,-1
 153 409 l 1,6,-1
 487 409 l 1,7,-1
 487 636 l 1,8,-1
 68 636 l 1,9,-1
 68 716 l 1,10,-1
 572 716 l 1,11,-1
 572 0 l 1,0,-1
EndSplineSet
Validated: 3073
EndChar
StartChar: uni018F
Encoding: 399 399 599
Width: 640
VWidth: 0
Flags: W
HStem: -5 80<236.583 413.417> 329 80<148 502> 636 80<68 416.262>
VStem: 68 80<184.389 329> 502 80<184.389 329 409 536.042>
LayerCount: 2
Fore
SplineSet
502 329 m 1,0,-1
 148 329 l 1,1,2
 148 75 148 75 325 75 c 128,-1,3
 502 75 502 75 502 329 c 1,0,-1
502 409 m 1,4,5
 502 636 502 636 321 636 c 2,6,-1
 68 636 l 1,7,-1
 68 716 l 1,8,-1
 321 716 l 2,9,10
 582 716 582 716 582 409 c 2,11,-1
 582 331 l 2,12,13
 582 -5 582 -5 325 -5 c 128,-1,14
 68 -5 68 -5 68 331 c 2,15,-1
 68 409 l 1,16,-1
 502 409 l 1,4,5
EndSplineSet
Validated: 3073
EndChar
StartChar: uni01C0
Encoding: 448 448 274
Width: 192
VWidth: 0
Flags: W
HStem: 620 20G<64 128>
VStem: 64 64<-193 640>
LayerCount: 2
Fore
SplineSet
64 -193 m 1,0,-1
 64 640 l 1,1,-1
 128 640 l 1,2,-1
 128 -193 l 1,3,-1
 64 -193 l 1,0,-1
EndSplineSet
Validated: 19457
EndChar
StartChar: uni01E4
Encoding: 484 484 607
Width: 640
VWidth: 0
Flags: W
HStem: 0 80<200.031 492> 164 80<392 492 572 672> 329 80<320 492> 636 80<200.031 572>
VStem: 68 80<136.819 579.181> 492 80<80 164 244 329>
LayerCount: 2
Fore
SplineSet
572 716 m 1,0,-1
 572 636 l 1,1,-1
 268 636 l 2,2,3
 148 636 148 636 148 466 c 2,4,-1
 148 250 l 2,5,6
 148 80 148 80 268 80 c 2,7,-1
 492 80 l 1,8,-1
 492 164 l 1,9,-1
 392 164 l 1,10,-1
 392 244 l 1,11,-1
 492 244 l 1,12,-1
 492 329 l 1,13,-1
 320 329 l 1,14,-1
 320 409 l 1,15,-1
 572 409 l 1,16,-1
 572 244 l 1,17,-1
 672 244 l 1,18,-1
 672 164 l 1,19,-1
 572 164 l 1,20,-1
 572 0 l 1,21,-1
 268 0 l 2,22,23
 68 0 68 0 68 250 c 2,24,-1
 68 466 l 2,25,26
 68 716 68 716 268 716 c 2,27,-1
 572 716 l 1,0,-1
EndSplineSet
Validated: 3073
EndChar
StartChar: uni01E5
Encoding: 485 485 608
Width: 640
VWidth: 0
UnlinkRmOvrlpSave: 1
Flags: W
HStem: -220 80<121 357.378> -110 80<282 582> 0 80<191.352 407> 450 80<191.352 407>
VStem: 58 85<136.125 393.875> 407 85<-90.6445 0 80 450>
LayerCount: 2
Fore
SplineSet
282 -30 m 1
 582 -30 l 1
 582 -110 l 1
 282 -110 l 1
 282 -30 l 1
EndSplineSet
Refer: 18 103 N 1 0 0 1 0 0 2
EndChar
StartChar: uni0237
Encoding: 567 567 150
Width: 320
VWidth: 0
Flags: W
HStem: -192 64<0 154.398> 404 20G<192 256>
VStem: 192 64<-88.6797 424>
LayerCount: 2
Fore
SplineSet
192 8 m 2,0,-1
 192 424 l 1,1,-1
 256 424 l 1,2,-1
 256 8 l 2,3,4
 256 -192 256 -192 96 -192 c 2,5,-1
 0 -192 l 1,6,-1
 0 -128 l 1,7,-1
 96 -128 l 2,8,9
 192 -128 192 -128 192 8 c 2,0,-1
EndSplineSet
EndChar
StartChar: uni0254
Encoding: 596 596 587
Width: 560
VWidth: 0
Flags: W
HStem: -5 80<173.397 382.672> 455 80<173.397 382.672>
VStem: 58 85<106.771 152 378 423.229> 417 85<114.187 415.813>
LayerCount: 2
Fore
SplineSet
328 -5 m 2,0,1
 228 -5 l 2,2,3
 81 -5 81 -5 58 152 c 1,4,-1
 143 152 l 1,5,6
 162 75 162 75 228 75 c 2,7,-1
 328 75 l 2,8,9
 417 75 417 75 417 216 c 2,10,-1
 417 314 l 2,11,12
 417 455 417 455 328 455 c 2,13,-1
 228 455 l 2,14,15
 162 455 162 455 143 378 c 1,16,-1
 58 378 l 1,17,18
 81 535 81 535 228 535 c 2,19,-1
 328 535 l 2,20,21
 502 535 502 535 502 314 c 2,22,-1
 502 216 l 2,23,24
 502 -5 502 -5 328 -5 c 2,0,1
EndSplineSet
Validated: 19457
EndChar
StartChar: uni0258
Encoding: 600 600 583
Width: 560
VWidth: 0
Flags: W
HStem: 0 80<68 372.609> 236 80<153 417> 455 80<201.231 368.769>
VStem: 68 85<316 405.454> 417 85<129.359 236 316 405.454>
LayerCount: 2
Fore
SplineSet
417 316 m 1,0,1
 417 455 417 455 285 455 c 128,-1,2
 153 455 153 455 153 316 c 1,3,-1
 417 316 l 1,0,1
417 236 m 1,4,5
 68 236 l 1,6,-1
 68 314 l 2,7,8
 68 535 68 535 285 535 c 128,-1,9
 502 535 502 535 502 314 c 2,10,-1
 502 236 l 2,11,12
 502 0 502 0 306 0 c 2,13,-1
 68 0 l 1,14,-1
 68 80 l 1,15,-1
 306 80 l 2,16,17
 417 80 417 80 417 236 c 1,4,5
EndSplineSet
Validated: 3073
EndChar
StartChar: uni0259
Encoding: 601 601 582
Width: 560
VWidth: 0
Flags: W
HStem: -5 80<199.66 370.34> 214 80<148 422> 450 80<68 375.91>
VStem: 68 80<126.616 214> 422 80<126.616 214 294 400.641>
LayerCount: 2
Fore
SplineSet
422 214 m 1,0,-1
 148 214 l 1,1,2
 148 75 148 75 285 75 c 128,-1,3
 422 75 422 75 422 214 c 1,0,-1
422 294 m 1,4,5
 422 450 422 450 311 450 c 2,6,-1
 68 450 l 1,7,-1
 68 530 l 1,8,-1
 311 530 l 2,9,10
 502 530 502 530 502 294 c 2,11,-1
 502 216 l 2,12,13
 502 -5 502 -5 285 -5 c 128,-1,14
 68 -5 68 -5 68 216 c 2,15,-1
 68 294 l 1,16,-1
 422 294 l 1,4,5
EndSplineSet
Validated: 3073
EndChar
StartChar: circumflex
Encoding: 710 710 325
Width: 540
VWidth: 1280
GlyphClass: 2
Flags: W
HStem: 530 240
AnchorPoint: "top" 270 450 mark 0
LayerCount: 2
Fore
SplineSet
58 589 m 1,0,-1
 270 770 l 1,1,-1
 482 589 l 1,2,-1
 428 530 l 1,3,-1
 270 662 l 1,4,-1
 112 530 l 1,5,-1
 58 589 l 1,0,-1
EndSplineSet
Validated: 3073
EndChar
StartChar: caron
Encoding: 711 711 208
Width: 540
VWidth: 1280
GlyphClass: 2
Flags: W
HStem: 530 240
AnchorPoint: "top" 270 450 mark 0
LayerCount: 2
Fore
SplineSet
58 711 m 1,0,-1
 112 770 l 1,1,-1
 270 638 l 1,2,-1
 428 770 l 1,3,-1
 482 711 l 1,4,-1
 270 530 l 1,5,-1
 58 711 l 1,0,-1
EndSplineSet
Validated: 3073
EndChar
StartChar: breve
Encoding: 728 728 330
Width: 504
VWidth: 1280
GlyphClass: 2
Flags: W
HStem: 580 76<174.897 329.103> 750 20G<58 137 367 446>
VStem: 58 79<695.967 770> 367 79<695.967 770>
AnchorPoint: "top" 252 510 mark 0
LayerCount: 2
Fore
SplineSet
58 770 m 1,0,-1
 137 770 l 1,1,2
 137 656 137 656 252 656 c 128,-1,3
 367 656 367 656 367 770 c 1,4,-1
 446 770 l 1,5,6
 446 580 446 580 252 580 c 128,-1,7
 58 580 58 580 58 770 c 1,0,-1
EndSplineSet
Validated: 3073
EndChar
StartChar: ring
Encoding: 730 730 154
Width: 288
VWidth: 1024
Flags: W
HStem: 448 64<131.822 190.132> 576 64<131.822 190.132>
VStem: 64 65<514.199 574.022> 193 64<514.199 574.022>
AnchorPoint: "top" 160 384 mark 0
LayerCount: 2
Fore
SplineSet
129 544 m 0
 129 528 143 512 161 512 c 0
 179 512 193 528 193 544 c 0
 193 560 179 576 161 576 c 0
 143 576 129 560 129 544 c 0
64 543 m 0
 64 596 109 640 161 640 c 0
 213 640 257 596 257 543 c 0
 257 490 213 448 161 448 c 0
 109 448 64 490 64 543 c 0
EndSplineSet
Validated: 1
EndChar
StartChar: gravecomb
Encoding: 768 768 403
Width: 400
VWidth: 1280
Flags: W
HStem: 530 240
VStem: 68 264
AnchorPoint: "top" 232 450 mark 0
LayerCount: 2
Fore
SplineSet
272 530 m 5,0,-1
 68 710 l 5,1,-1
 128 770 l 5,2,-1
 332 589 l 5,3,-1
 272 530 l 5,0,-1
EndSplineSet
Validated: 3073
EndChar
StartChar: acutecomb
Encoding: 769 769 406
Width: 400
VWidth: 1280
Flags: W
HStem: 530 240
VStem: 68 264
AnchorPoint: "top" 168 450 mark 0
LayerCount: 2
Fore
SplineSet
128 530 m 5,0,-1
 68 592 l 5,1,-1
 272 770 l 5,2,-1
 332 708 l 5,3,-1
 128 530 l 5,0,-1
EndSplineSet
Validated: 19457
EndChar
StartChar: uni0302
Encoding: 770 770 404
Width: 560
VWidth: 1280
Flags: W
HStem: 524 246
AnchorPoint: "top" 280 450 mark 0
LayerCount: 2
Fore
SplineSet
68 575 m 1,0,-1
 280 770 l 1,1,-1
 492 574 l 1,2,-1
 437 524 l 1,3,-1
 280 670 l 1,4,-1
 123 525 l 1,5,-1
 68 575 l 1,0,-1
EndSplineSet
Validated: 19457
EndChar
StartChar: tildecomb
Encoding: 771 771 397
Width: 560
VWidth: 0
Flags: W
HStem: 559 80<331.749 395.601> 700 80<164.399 228.251> 750 20G<414 502>
VStem: 58 88<569 684.751> 414 88<654.249 770>
AnchorPoint: "top" 280 489 mark 0
LayerCount: 2
Fore
SplineSet
502 770 m 1,0,1
 502 559 502 559 366 559 c 0,2,3
 303 559 303 559 262 629.5 c 128,-1,4
 221 700 221 700 194 700 c 0,5,6
 146 700 146 700 146 569 c 1,7,-1
 58 569 l 1,8,9
 58 780 58 780 194 780 c 0,10,11
 257 780 257 780 298 709.5 c 128,-1,12
 339 639 339 639 366 639 c 0,13,14
 414 639 414 639 414 770 c 1,15,-1
 502 770 l 1,0,1
EndSplineSet
Validated: 19457
EndChar
StartChar: uni0306
Encoding: 774 774 402
Width: 560
VWidth: 1280
Flags: W
HStem: 580 80<192.727 367.273> 750 20G<68 153 407 492>
VStem: 68 85<700.652 770> 407 85<700.652 770>
AnchorPoint: "top" 280 500 mark 0
LayerCount: 2
Fore
SplineSet
68 770 m 1,0,-1
 153 770 l 1,1,2
 153 660 153 660 280 660 c 128,-1,3
 407 660 407 660 407 770 c 1,4,-1
 492 770 l 1,5,6
 492 580 492 580 280 580 c 128,-1,7
 68 580 68 580 68 770 c 1,0,-1
EndSplineSet
Validated: 19457
EndChar
StartChar: uni030A
Encoding: 778 778 399
Width: 400
VWidth: 1280
Flags: W
HStem: 540 66<155.173 244.827> 710 70<155.173 244.827>
VStem: 80 68<613.538 703.192> 252 68<613.538 703.192>
AnchorPoint: "top" 200 470 mark 0
LayerCount: 2
Fore
SplineSet
148 658 m 128,-1,1
 148 606 148 606 200 606 c 128,-1,2
 252 606 252 606 252 658 c 128,-1,3
 252 710 252 710 200 710 c 128,-1,0
 148 710 148 710 148 658 c 128,-1,1
80 658 m 0,4,5
 80 780 80 780 200 780 c 128,-1,6
 320 780 320 780 320 658 c 0,7,8
 320 540 320 540 200 540 c 128,-1,9
 80 540 80 540 80 658 c 0,4,5
EndSplineSet
Validated: 19457
EndChar
StartChar: uni030B
Encoding: 779 779 400
Width: 560
VWidth: 1280
Flags: W
HStem: 530 240
AnchorPoint: "top" 253 450 mark 0
LayerCount: 2
Fore
SplineSet
328 530 m 1,0,-1
 268 582 l 1,1,-1
 422 770 l 1,2,-1
 482 718 l 1,3,-1
 328 530 l 1,0,-1
138 530 m 1,4,-1
 78 582 l 1,5,-1
 232 770 l 1,6,-1
 292 718 l 1,7,-1
 138 530 l 1,4,-1
EndSplineSet
Validated: 19457
EndChar
StartChar: uni030C
Encoding: 780 780 403
Width: 560
VWidth: 1280
Flags: W
HStem: 524 245
AnchorPoint: "top" 280 450 mark 0
LayerCount: 2
Fore
SplineSet
68 719 m 1,0,-1
 123 769 l 1,1,-1
 280 624 l 1,2,-1
 437 770 l 1,3,-1
 492 720 l 1,4,-1
 280 524 l 1,5,-1
 68 719 l 1,0,-1
EndSplineSet
Validated: 3073
EndChar
StartChar: uni030F
Encoding: 783 783 419
Width: 560
VWidth: 1280
Flags: W
HStem: 530 240
AnchorPoint: "top" 307 450 mark 0
LayerCount: 2
Fore
SplineSet
232 530 m 1,0,-1
 78 718 l 1,1,-1
 138 770 l 1,2,-1
 292 582 l 1,3,-1
 232 530 l 1,0,-1
422 530 m 1,4,-1
 268 718 l 1,5,-1
 328 770 l 1,6,-1
 482 582 l 1,7,-1
 422 530 l 1,4,-1
EndSplineSet
Validated: 19457
EndChar
StartChar: uni0311
Encoding: 785 785 360
Width: 560
VWidth: 1280
Flags: W
HStem: 690 80<201.729 358.271>
VStem: 80 85<580 654.033> 395 85<580 654.033>
AnchorPoint: "top" 280 500 mark 0
LayerCount: 2
Fore
SplineSet
80 580 m 1,0,1
 80 770 80 770 280 770 c 128,-1,2
 480 770 480 770 480 580 c 1,3,-1
 395 580 l 1,4,5
 395 690 395 690 280 690 c 128,-1,6
 165 690 165 690 165 580 c 1,7,-1
 80 580 l 1,0,1
EndSplineSet
Validated: 3073
EndChar
StartChar: uni0327
Encoding: 807 807 412
Width: 480
VWidth: 1280
Flags: W
HStem: -220 80<75 310.989>
VStem: 311 102<-183 -92.9175>
AnchorPoint: "cedilla" 240 0 mark 0
LayerCount: 2
Fore
SplineSet
250 50 m 1,0,1
 413 -88 413 -88 413 -146 c 0,2,3
 413 -220 413 -220 314 -220 c 2,4,-1
 75 -220 l 1,5,-1
 75 -140 l 1,6,-1
 265 -140 l 2,7,8
 311 -140 311 -140 311 -119 c 4,9,10
 311 -90 311 -90 200 0 c 1,11,-1
 250 50 l 1,0,1
EndSplineSet
Validated: 19457
EndChar
StartChar: uni0328
Encoding: 808 808 398
Width: 320
VWidth: 1280
Flags: W
HStem: -220 80<149.049 257.904>
VStem: 58 90<-137.924 -74.215>
AnchorPoint: "ogonek" 215 0 mark 0
LayerCount: 2
Fore
SplineSet
205 50 m 1,0,1
 255 0 l 1,2,3
 148 -81 148 -81 148 -109 c 0,4,5
 148 -140 148 -140 184 -140 c 0,6,7
 223 -140 223 -140 259 -128 c 1,8,-1
 259 -201 l 1,9,10
 225 -220 225 -220 173 -220 c 0,11,12
 58 -220 58 -220 58 -129 c 0,13,14
 58 -71 58 -71 205 50 c 1,0,1
EndSplineSet
Validated: 19457
EndChar
StartChar: endash
Encoding: 8211 8211 317
Width: 640
VWidth: 1280
Flags: W
HStem: 236 80<68 572>
LayerCount: 2
Fore
SplineSet
68 236 m 1,0,-1
 68 316 l 1,1,-1
 572 316 l 1,2,-1
 572 236 l 1,3,-1
 68 236 l 1,0,-1
EndSplineSet
Validated: 19457
EndChar
StartChar: emdash
Encoding: 8212 8212 318
Width: 720
VWidth: 1280
Flags: W
HStem: 329 80<68 652>
LayerCount: 2
Fore
SplineSet
68 329 m 1,0,-1
 68 409 l 1,1,-1
 652 409 l 1,2,-1
 652 329 l 1,3,-1
 68 329 l 1,0,-1
EndSplineSet
Validated: 3073
EndChar
StartChar: quoteleft
Encoding: 8216 8216 313
Width: 296
VWidth: 1280
Flags: W
HStem: 489 141<148 228> 750 20G<136.571 228>
VStem: 68 160<489 630>
LayerCount: 2
Fore
SplineSet
228 770 m 1,0,-1
 148 630 l 1,1,-1
 228 630 l 1,2,-1
 228 489 l 1,3,-1
 68 489 l 1,4,-1
 68 630 l 1,5,-1
 148 770 l 1,6,-1
 228 770 l 1,0,-1
EndSplineSet
Validated: 19457
EndChar
StartChar: quoteright
Encoding: 8217 8217 314
Width: 296
VWidth: 1280
Flags: W
HStem: 629 141<68 148>
VStem: 68 160<629 770>
LayerCount: 2
Fore
SplineSet
68 489 m 1,0,-1
 148 629 l 1,1,-1
 68 629 l 1,2,-1
 68 770 l 1,3,-1
 228 770 l 1,4,-1
 228 629 l 1,5,-1
 148 489 l 1,6,-1
 68 489 l 1,0,-1
EndSplineSet
Validated: 19457
EndChar
StartChar: quotedblleft
Encoding: 8220 8220 315
Width: 536
VWidth: 1280
Flags: W
HStem: 489 141<148 228 388 468> 750 20G<136.571 228 376.571 468>
VStem: 68 160<489 630> 308 160<489 630>
LayerCount: 2
Fore
SplineSet
228 770 m 1,0,-1
 148 630 l 1,1,-1
 228 630 l 1,2,-1
 228 489 l 1,3,-1
 68 489 l 1,4,-1
 68 630 l 1,5,-1
 148 770 l 1,6,-1
 228 770 l 1,0,-1
468 770 m 1,7,-1
 388 630 l 1,8,-1
 468 630 l 1,9,-1
 468 489 l 1,10,-1
 308 489 l 1,11,-1
 308 630 l 1,12,-1
 388 770 l 1,13,-1
 468 770 l 1,7,-1
EndSplineSet
Validated: 19457
EndChar
StartChar: dagger
Encoding: 8224 8224 322
Width: 560
VWidth: 1280
Flags: W
HStem: 470 80<68 238 322 492> 750 20G<238 322>
VStem: 238 84<-220 470 550 770>
LayerCount: 2
Fore
SplineSet
68 470 m 1,0,-1
 68 550 l 1,1,-1
 238 550 l 1,2,-1
 238 770 l 1,3,-1
 322 770 l 1,4,-1
 322 550 l 1,5,-1
 492 550 l 1,6,-1
 492 470 l 1,7,-1
 322 470 l 1,8,-1
 322 -220 l 1,9,-1
 238 -220 l 1,10,-1
 238 470 l 1,11,-1
 68 470 l 1,0,-1
EndSplineSet
Validated: 19457
EndChar
StartChar: daggerdbl
Encoding: 8225 8225 323
Width: 560
VWidth: 1280
Flags: W
HStem: 0 80<68 240 320 492> 470 80<68 240 320 492> 750 20G<240 320>
VStem: 240 80<-220 0 80 470 550 770>
LayerCount: 2
Fore
SplineSet
68 470 m 1,0,-1
 68 550 l 1,1,-1
 240 550 l 1,2,-1
 240 770 l 1,3,-1
 320 770 l 1,4,-1
 320 550 l 1,5,-1
 492 550 l 1,6,-1
 492 470 l 1,7,-1
 320 470 l 1,8,-1
 320 80 l 1,9,-1
 492 80 l 1,10,-1
 492 0 l 1,11,-1
 320 -0 l 1,12,-1
 320 -220 l 1,13,-1
 240 -220 l 1,14,-1
 240 -0 l 1,15,-1
 68 0 l 1,16,-1
 68 80 l 1,17,-1
 240 80 l 1,18,-1
 240 470 l 1,19,-1
 68 470 l 1,0,-1
EndSplineSet
Validated: 3073
EndChar
StartChar: perthousand
Encoding: 8240 8240 324
Width: 1200
VWidth: 1280
UnlinkRmOvrlpSave: 1
Flags: W
HStem: -10 75<571.23 670.77 927.23 1026.77> 0 21G<167 268.732> 201 75<571.23 670.77 927.23 1026.77> 440 75<173.23 272.77> 651 75<173.23 272.77> 696 20G<575.268 677>
VStem: 80 80<526.751 639.249> 286 80<526.751 639.249> 478 80<76.7515 189.249> 684 80<76.7515 189.249> 834 80<76.7515 189.249> 1040 80<76.7515 189.249>
LayerCount: 2
Fore
SplineSet
914 133 m 0
 914 65 914 65 977 65 c 0
 1040 65 1040 65 1040 133 c 0
 1040 201 1040 201 977 201 c 0
 914 201 914 201 914 133 c 0
834 133 m 0
 834 276 834 276 977 276 c 0
 1120 276 1120 276 1120 133 c 0
 1120 -10 1120 -10 977 -10 c 0
 834 -10 834 -10 834 133 c 0
EndSplineSet
Refer: 88 37 N 1 0 0 1 22 0 2
EndChar
StartChar: uni2031
Encoding: 8241 8241 389
Width: 1487
VWidth: 0
Flags: HW
HStem: -22 69<545.487 652.513> -22 78<890.188 995.812 1233.19 1338.81> 0 21G<155 256.173> 186 78<890.188 995.812 1233.19 1338.81> 195 69<545.487 652.513> 452 69<147.487 254.513> 669 69<147.487 254.513> 696 20G<543.827 645>
VStem: 58 74<535.494 654.506> 270 74<535.494 654.506> 456 74<61.494 180.506> 668 74<61.494 180.506> 800 78<68.1875 173.812> 1008 78<68.1875 173.812> 1143 78<68.1875 173.812> 1351 78<68.1875 173.812>
LayerCount: 2
Fore
SplineSet
1221 121 m 0
 1221 56 1221 56 1286 56 c 0
 1351 56 1351 56 1351 121 c 0
 1351 186 1351 186 1286 186 c 0
 1221 186 1221 186 1221 121 c 0
1143 121 m 0
 1143 264 1143 264 1286 264 c 0
 1429 264 1429 264 1429 121 c 0
 1429 -22 1429 -22 1286 -22 c 0
 1143 -22 1143 -22 1143 121 c 0
EndSplineSet
Refer: 324 8240 N 1 0 0 1 0 0 2
Validated: 35841
EndChar
StartChar: fraction
Encoding: 8260 8260 646
Width: 80
VWidth: 0
Flags: W
HStem: 0 21G<-215 -113.268> 696 20G<193.268 295>
LayerCount: 2
Fore
SplineSet
-215 0 m 1,0,-1
 205 716 l 1,1,-1
 295 716 l 1,2,-1
 -125 0 l 1,3,-1
 -215 0 l 1,0,-1
EndSplineSet
Validated: 3073
EndChar
StartChar: uni2070
Encoding: 8304 8304 645
Width: 480
VWidth: 0
Flags: W
HStem: 386 70<160.422 319.578> 785 70<160.422 319.578>
VStem: 68 75<472.062 768.938> 337 75<472.062 768.938>
LayerCount: 2
Fore
SplineSet
412 702 m 2,0,1
 412 539 l 2,2,3
 412 386 412 386 272 386 c 2,4,-1
 208 386 l 2,5,6
 68 386 68 386 68 539 c 2,7,-1
 68 702 l 2,8,9
 68 855 68 855 208 855 c 2,10,-1
 272 855 l 2,11,12
 412 855 412 855 412 702 c 2,0,1
337 539 m 2,13,-1
 337 702 l 2,14,15
 337 785 337 785 272 785 c 2,16,-1
 208 785 l 2,17,18
 143 785 143 785 143 702 c 2,19,-1
 143 539 l 2,20,21
 143 456 143 456 208 456 c 2,22,-1
 272 456 l 2,23,24
 337 456 337 456 337 539 c 2,13,-1
EndSplineSet
Validated: 3073
EndChar
StartChar: uni2074
Encoding: 8308 8308 641
Width: 480
VWidth: 1280
Flags: W
HStem: 534 70<143 277 352 412> 750 20G<68 143>
VStem: 68 75<604 770> 277 75<391 534 604 850>
LayerCount: 2
Fore
SplineSet
277 391 m 1,0,-1
 277 534 l 1,1,-1
 68 534 l 1,2,-1
 68 770 l 1,3,-1
 143 770 l 1,4,-1
 143 604 l 1,5,-1
 277 604 l 1,6,-1
 277 850 l 1,7,-1
 352 850 l 1,8,-1
 352 604 l 1,9,-1
 412 604 l 1,10,-1
 412 534 l 1,11,-1
 352 534 l 1,12,-1
 352 391 l 1,13,-1
 277 391 l 1,0,-1
EndSplineSet
Validated: 3073
EndChar
StartChar: uni2075
Encoding: 8309 8309 648
Width: 480
VWidth: 0
Flags: W
HStem: 391 70<68 332.718> 614 70<143 332.718> 780 70<143 402>
VStem: 68 75<684 780> 347 75<475.554 599.063>
LayerCount: 2
Fore
SplineSet
282 391 m 2,0,-1
 68 391 l 1,1,-1
 68 461 l 1,2,-1
 282 461 l 2,3,4
 347 461 347 461 347 537 c 0,5,6
 347 614 347 614 282 614 c 2,7,-1
 68 614 l 1,8,-1
 68 850 l 1,9,-1
 402 850 l 1,10,-1
 402 780 l 1,11,-1
 143 780 l 1,12,-1
 143 684 l 1,13,-1
 282 684 l 2,14,15
 422 684 422 684 422 537 c 0,16,17
 422 391 422 391 282 391 c 2,0,-1
EndSplineSet
Validated: 19457
EndChar
StartChar: uni2076
Encoding: 8310 8310 662
Width: 480
VWidth: 0
Flags: W
HStem: 386 70<160.422 329.578> 614 70<143 329.578> 780 70<160.422 352>
VStem: 68 75<470.06 614 684 765.94> 347 75<469.936 600.064>
LayerCount: 2
Fore
SplineSet
282 456 m 2,0,1
 347 456 347 456 347 535 c 256,2,3
 347 614 347 614 282 614 c 2,4,-1
 143 614 l 1,5,-1
 143 535 l 2,6,7
 143 456 143 456 208 456 c 2,8,-1
 282 456 l 2,0,1
208 386 m 2,9,10
 68 386 68 386 68 535 c 2,11,-1
 68 701 l 2,12,13
 68 850 68 850 208 850 c 2,14,-1
 352 850 l 1,15,-1
 352 780 l 1,16,-1
 208 780 l 2,17,18
 143 780 143 780 143 701 c 2,19,-1
 143 684 l 1,20,-1
 282 684 l 2,21,22
 422 684 422 684 422 535 c 256,23,24
 422 386 422 386 282 386 c 2,25,-1
 208 386 l 2,9,10
EndSplineSet
Validated: 3073
EndChar
StartChar: uni2077
Encoding: 8311 8311 665
Width: 480
VWidth: 1280
Flags: W
HStem: 780 70<143 337>
VStem: 68 75<684 780> 190 75<391 552> 337 75<699 780>
LayerCount: 2
Fore
SplineSet
190 391 m 1,0,-1
 190 579 l 1,1,-1
 337 699 l 1,2,-1
 337 780 l 1,3,-1
 143 780 l 1,4,-1
 143 684 l 1,5,-1
 68 684 l 1,6,-1
 68 850 l 1,7,-1
 412 850 l 1,8,-1
 412 672 l 1,9,-1
 265 552 l 1,10,-1
 265 391 l 1,11,-1
 190 391 l 1,0,-1
EndSplineSet
Validated: 3073
EndChar
StartChar: uni2078
Encoding: 8312 8312 667
Width: 480
VWidth: 0
Flags: W
HStem: 386 70<146.901 333.099> 586 70<144.569 335.431> 785 70<146.901 333.099>
VStem: 58 75<467.983 574.089 667.732 773.017> 347 75<467.983 574.089 667.732 773.017>
LayerCount: 2
Fore
SplineSet
198 456 m 2,0,1
 282 456 l 2,2,3
 347 456 347 456 347 521 c 256,4,5
 347 586 347 586 282 586 c 2,6,-1
 198 586 l 2,7,8
 133 586 133 586 133 521 c 256,9,10
 133 456 133 456 198 456 c 2,0,1
282 386 m 2,11,-1
 198 386 l 2,12,13
 58 386 58 386 58 521 c 0,14,15
 58 586 58 586 99 621 c 1,16,17
 58 653 58 653 58 720 c 0,18,19
 58 855 58 855 198 855 c 2,20,-1
 282 855 l 2,21,22
 422 855 422 855 422 720 c 0,23,24
 422 653 422 653 381 621 c 1,25,26
 422 586 422 586 422 521 c 0,27,28
 422 386 422 386 282 386 c 2,11,-1
198 656 m 2,29,-1
 282 656 l 2,30,31
 347 656 347 656 347 720 c 256,32,33
 347 785 347 785 282 785 c 2,34,-1
 198 785 l 2,35,36
 133 785 133 785 133 720 c 256,37,38
 133 656 133 656 198 656 c 2,29,-1
EndSplineSet
Validated: 3073
EndChar
StartChar: uni2079
Encoding: 8313 8313 672
Width: 480
VWidth: 0
Flags: W
HStem: 391 70<128 319.578> 571 70<146.901 337> 785 70<146.901 319.578>
VStem: 58 75<654.026 771.974> 337 75<475.06 571 641 770.94>
LayerCount: 2
Fore
SplineSet
198 785 m 6,0,1
 133 785 133 785 133 713 c 260,2,3
 133 641 133 641 198 641 c 6,4,-1
 337 641 l 5,5,-1
 337 706 l 6,6,7
 337 785 337 785 272 785 c 6,8,-1
 198 785 l 6,0,1
272 855 m 6,9,10
 412 855 412 855 412 706 c 6,11,-1
 412 540 l 6,12,13
 412 391 412 391 272 391 c 6,14,-1
 128 391 l 5,15,-1
 128 461 l 5,16,-1
 272 461 l 6,17,18
 337 461 337 461 337 540 c 6,19,-1
 337 571 l 5,20,-1
 198 571 l 6,21,22
 58 571 58 571 58 713 c 260,23,24
 58 855 58 855 198 855 c 6,25,-1
 272 855 l 6,9,10
EndSplineSet
Validated: 3073
EndChar
StartChar: Euro
Encoding: 8364 8364 319
Width: 720
VWidth: 0
Flags: W
HStem: -5 80<281.577 535.242> 245 80<68 148 233 436> 391 80<68 148 233 504> 641 80<281.577 535.242>
VStem: 148 85<135.625 245 325 391 471 580.375> 577 85<118.873 169 547 597.127>
LayerCount: 2
Fore
SplineSet
470 -5 m 2,0,-1
 348 -5 l 2,1,2
 152 -5 152 -5 148 245 c 1,3,-1
 68 245 l 1,4,-1
 68 325 l 1,5,-1
 148 325 l 1,6,-1
 148 391 l 1,7,-1
 68 391 l 1,8,-1
 68 471 l 1,9,-1
 148 471 l 1,10,11
 152 721 152 721 348 721 c 2,12,-1
 470 721 l 2,13,14
 634 721 634 721 662 547 c 1,15,-1
 577 547 l 1,16,17
 554 641 554 641 470 641 c 2,18,-1
 348 641 l 2,19,20
 236 641 236 641 233 471 c 1,21,-1
 504 471 l 1,22,-1
 504 391 l 1,23,-1
 233 391 l 1,24,-1
 233 325 l 1,25,-1
 436 325 l 1,26,-1
 436 245 l 1,27,-1
 233 245 l 1,28,29
 236 75 236 75 348 75 c 2,30,-1
 470 75 l 2,31,32
 554 75 554 75 577 169 c 1,33,-1
 662 169 l 1,34,35
 634 -5 634 -5 470 -5 c 2,0,-1
EndSplineSet
Validated: 19457
EndChar
StartChar: uni2160
Encoding: 8544 8544 177
Width: 289
VWidth: 1024
Flags: W
HStem: 0 64<64 128 192 256> 512 64<64 128 192 256>
VStem: 64 192<0 64 512 576>
LayerCount: 2
Fore
SplineSet
64 0 m 5
 64 64 l 5
 128 64 l 5
 128 512 l 5
 64 512 l 5
 64 576 l 5
 256 576 l 5
 256 512 l 5
 192 512 l 5
 192 64 l 5
 256 64 l 5
 256 0 l 5
 64 0 l 5
EndSplineSet
Validated: 1
EndChar
StartChar: uni2161
Encoding: 8545 8545 178
Width: 478
VWidth: 1024
Flags: W
HStem: 0 64<64 128 192 320 384 448> 512 64<64 128 192 320 384 448>
VStem: 128 64<64 512> 320 64<64 512>
LayerCount: 2
Fore
SplineSet
64 0 m 1
 64 64 l 1
 128 64 l 1
 128 512 l 1
 64 512 l 1
 64 576 l 1
 192 576 l 1
 320 576 l 1
 448 576 l 1
 448 512 l 1
 384 512 l 1
 384 64 l 1
 448 64 l 1
 448 0 l 1
 320 0 l 1
 192 0 l 1
 64 0 l 1
192 512 m 1
 192 64 l 1
 320 64 l 1
 320 512 l 1
 192 512 l 1
EndSplineSet
EndChar
StartChar: uni2163
Encoding: 8547 8547 179
Width: 880
VWidth: 0
Flags: W
HStem: 0 80<72 152 236 470 574 807> 636 80<72 152 236 316 406 638 728 808>
VStem: 152 84<80 636>
LayerCount: 2
Fore
SplineSet
72 0 m 5,0,-1
 72 80 l 5,1,-1
 152 80 l 5,2,-1
 152 636 l 5,3,-1
 72 636 l 5,4,-1
 72 716 l 5,5,-1
 808 716 l 5,6,-1
 808 636 l 5,7,-1
 728 636 l 5,8,-1
 574 80 l 5,9,-1
 807 80 l 5,10,-1
 807 0 l 5,11,-1
 72 0 l 5,0,-1
522 217 m 5,12,-1
 638 636 l 5,13,-1
 406 636 l 5,14,-1
 522 217 l 5,12,-1
236 636 m 5,15,-1
 236 80 l 5,16,-1
 470 80 l 5,17,-1
 316 636 l 5,18,-1
 236 636 l 5,15,-1
EndSplineSet
Validated: 3073
EndChar
StartChar: uni2164
Encoding: 8548 8548 181
Width: 544
VWidth: 0
Flags: W
HStem: 0 64<64 238.667 339.333 512> 512 64<64 110.333 178.553 399.447 467.667 512>
LayerCount: 2
Fore
SplineSet
64 64 m 5
 128 64 l 5
 238.666992188 64 l 5
 110.333007812 512 l 5
 64 512 l 5
 64 576 l 5
 512 576 l 5
 512 512 l 5
 467.666992188 512 l 5
 339.333007812 64 l 5
 512 64 l 5
 512 0 l 5
 64 0 l 5
 64 64 l 5
399.447265625 512 m 5
 178.552734375 512 l 5
 289 131 l 5
 399.447265625 512 l 5
EndSplineSet
Validated: 1
EndChar
StartChar: uni2165
Encoding: 8549 8549 181
Width: 880
VWidth: 0
Flags: W
HStem: 0 80<80 300 424 640 720 800> 636 80<80 138 224 499 586 640 720 800>
VStem: 640 80<80 636>
LayerCount: 2
Fore
SplineSet
80 80 m 1,0,-1
 300 80 l 1,1,-1
 138 636 l 1,2,-1
 80 636 l 1,3,-1
 80 716 l 1,4,-1
 800 716 l 1,5,-1
 800 636 l 1,6,-1
 720 636 l 1,7,-1
 720 80 l 1,8,-1
 800 80 l 1,9,-1
 800 0 l 1,10,-1
 80 0 l 1,11,-1
 80 80 l 1,0,-1
499 636 m 1,12,-1
 224 636 l 1,13,-1
 361 164 l 1,14,-1
 499 636 l 1,12,-1
424 80 m 1,15,-1
 640 80 l 1,16,-1
 640 636 l 1,17,-1
 586 636 l 1,18,-1
 424 80 l 1,15,-1
EndSplineSet
EndChar
StartChar: uni2166
Encoding: 8550 8550 182
Width: 1040
VWidth: 0
Flags: W
HStem: 0 80<71 304 408 642 726 806 890 970> 636 80<70 150 240 472 562 642 726 806 890 970>
VStem: 642 84<80 636> 806 84<80 636>
LayerCount: 2
Fore
SplineSet
642 636 m 5,0,-1
 562 636 l 5,1,-1
 408 80 l 5,2,-1
 642 80 l 5,3,-1
 642 636 l 5,0,-1
356 217 m 5,4,-1
 472 636 l 5,5,-1
 240 636 l 5,6,-1
 356 217 l 5,4,-1
71 0 m 5,7,-1
 71 80 l 5,8,-1
 304 80 l 5,9,-1
 150 636 l 5,10,-1
 70 636 l 5,11,-1
 70 716 l 5,12,-1
 970 716 l 5,13,-1
 970 636 l 5,14,-1
 890 636 l 5,15,-1
 890 80 l 5,16,-1
 970 80 l 5,17,-1
 970 0 l 5,18,-1
 71 0 l 5,7,-1
726 636 m 5,19,-1
 726 80 l 5,20,-1
 806 80 l 5,21,-1
 806 636 l 5,22,-1
 726 636 l 5,19,-1
EndSplineSet
Validated: 3073
EndChar
StartChar: uni2167
Encoding: 8551 8551 184
Width: 1120
VWidth: 0
Flags: W
HStem: 0 64<64 238.667 339.333 576 640 768 832 960 1024 1088> 512 64<64 110.333 178.553 399.447 467.667 576 640 768 832 960 1024 1088>
VStem: 576 64<64 512> 768 64<64 512> 960 64<64 512>
CounterMasks: 1 38
LayerCount: 2
Fore
SplineSet
640 512 m 1
 640 64 l 1
 768 64 l 1
 768 512 l 1
 640 512 l 1
64 64 m 1
 238.666992188 64 l 1
 110.333007812 512 l 1
 64 512 l 1
 64 576 l 1
 1088 576 l 1
 1088 512 l 1
 1024 512 l 1
 1024 64 l 1
 1088 64 l 1
 1088 0 l 1
 64 0 l 1
 64 64 l 1
399.447265625 512 m 1
 178.552734375 512 l 1
 289 131 l 1
 399.447265625 512 l 1
339.333007812 64 m 1
 576 64 l 1
 576 512 l 1
 467.666992188 512 l 1
 339.333007812 64 l 1
832 512 m 1
 832 64 l 1
 960 64 l 1
 960 512 l 1
 832 512 l 1
EndSplineSet
EndChar
StartChar: uni2168
Encoding: 8552 8552 185
Width: 880
VWidth: 0
Flags: W
HStem: 0 80<72 152 236 316 416 628 728 808> 636 80<72 152 236 316 416 628 728 808>
VStem: 152 84<80 636>
LayerCount: 2
Fore
SplineSet
72 0 m 1,0,-1
 72 80 l 1,1,-1
 152 80 l 1,2,-1
 152 636 l 1,3,-1
 72 636 l 1,4,-1
 72 716 l 1,5,-1
 808 716 l 1,6,-1
 808 636 l 1,7,-1
 728 636 l 1,8,-1
 572 358 l 1,9,-1
 728 80 l 1,10,-1
 808 80 l 1,11,-1
 808 0 l 1,12,-1
 72 0 l 1,0,-1
628 636 m 1,13,-1
 416 636 l 1,14,-1
 522 447 l 1,15,-1
 628 636 l 1,13,-1
416 80 m 1,16,-1
 628 80 l 1,17,-1
 522 269 l 1,18,-1
 416 80 l 1,16,-1
236 636 m 1,19,-1
 236 80 l 1,20,-1
 316 80 l 1,21,-1
 472 358 l 1,22,-1
 316 636 l 1,23,-1
 236 636 l 1,19,-1
EndSplineSet
Validated: 3073
EndChar
StartChar: uni2169
Encoding: 8553 8553 185
Width: 544
VWidth: 0
Flags: W
HStem: 0 64<64 122 195 381 454 512> 512 64<64 114 186 390 462 512>
LayerCount: 2
Fore
SplineSet
64 0 m 5
 64 64 l 5
 122 64.0009765625 l 5
 248 288 l 5
 114 512 l 5
 64 512 l 5
 64 576 l 5
 512 576 l 5
 512 512 l 5
 462 512 l 5
 328 288 l 5
 454 64 l 5
 512 64 l 5
 512 0 l 5
 64 0 l 5
186 512 m 5
 288 330 l 5
 390 512 l 5
 186 512 l 5
195 64 m 5
 381 64 l 5
 288 236 l 5
 195 64 l 5
EndSplineSet
Validated: 1
EndChar
StartChar: uni216A
Encoding: 8554 8554 186
Width: 880
VWidth: 0
Flags: W
HStem: 0 80<72 152 252 464 564 644 728 808> 636 80<72 152 252 464 564 644 728 808>
VStem: 644 84<80 636>
LayerCount: 2
Fore
SplineSet
808 0 m 1,0,-1
 72 0 l 1,1,-1
 72 80 l 1,2,-1
 152 80 l 1,3,-1
 308 358 l 1,4,-1
 152 636 l 1,5,-1
 72 636 l 1,6,-1
 72 716 l 1,7,-1
 808 716 l 1,8,-1
 808 636 l 1,9,-1
 728 636 l 1,10,-1
 728 80 l 1,11,-1
 808 80 l 1,12,-1
 808 0 l 1,0,-1
252 636 m 1,13,-1
 358 447 l 1,14,-1
 464 636 l 1,15,-1
 252 636 l 1,13,-1
464 80 m 1,16,-1
 358 269 l 1,17,-1
 252 80 l 1,18,-1
 464 80 l 1,16,-1
644 636 m 1,19,-1
 564 636 l 1,20,-1
 408 358 l 1,21,-1
 564 80 l 1,22,-1
 644 80 l 1,23,-1
 644 636 l 1,19,-1
EndSplineSet
Validated: 3073
EndChar
StartChar: uni216B
Encoding: 8555 8555 187
Width: 832
VWidth: 0
Flags: W
HStem: 0 64<64 122 195 381 454 512 576 640 704 768> 509 64<64 114 186 390 462 512 576 640 704 768>
VStem: 512 64<64 509> 640 64<64 509>
LayerCount: 2
Fore
SplineSet
462 509 m 1,0,-1
 328 288 l 1,1,-1
 454 64 l 1,2,-1
 512 64 l 1,3,-1
 512 509 l 1,4,-1
 462 509 l 1,0,-1
64 0 m 1,5,-1
 64 64 l 1,6,-1
 122 64 l 1,7,-1
 248 288 l 1,8,-1
 114 509 l 1,9,-1
 64 509 l 1,10,-1
 64 573 l 1,11,-1
 768 573 l 1,12,-1
 768 509 l 1,13,-1
 704 509 l 1,14,-1
 704 64 l 1,15,-1
 768 64 l 1,16,-1
 768 0 l 1,17,-1
 64 0 l 1,5,-1
186 509 m 1,18,-1
 288 330 l 1,19,-1
 390 509 l 1,20,-1
 186 509 l 1,18,-1
195 64 m 1,21,-1
 381 64 l 1,22,-1
 288 236 l 1,23,-1
 195 64 l 1,21,-1
576 509 m 1,24,-1
 576 64 l 1,25,-1
 640 64 l 1,26,-1
 640 509 l 1,27,-1
 576 509 l 1,24,-1
EndSplineSet
EndChar
StartChar: arrowleft
Encoding: 8592 8592 624
Width: 640
VWidth: 0
Flags: W
HStem: 329 80<198 592>
LayerCount: 2
Fore
SplineSet
278 139 m 1,0,-1
 48 369 l 1,1,-1
 278 599 l 1,2,-1
 333 544 l 1,3,-1
 198 409 l 1,4,-1
 592 409 l 5,5,-1
 592 329 l 5,6,-1
 198 329 l 1,7,-1
 333 194 l 1,8,-1
 278 139 l 1,0,-1
EndSplineSet
Validated: 19457
EndChar
StartChar: arrowup
Encoding: 8593 8593 626
Width: 640
VWidth: 0
Flags: W
VStem: 278 84<80 519>
LayerCount: 2
Fore
SplineSet
550 441 m 1,0,-1
 495 386 l 1,1,-1
 362 519 l 1,2,-1
 362 80 l 1,3,-1
 278 80 l 1,4,-1
 278 519 l 1,5,-1
 145 386 l 1,6,-1
 90 441 l 1,7,-1
 320 671 l 1,8,-1
 550 441 l 1,0,-1
EndSplineSet
Validated: 19457
EndChar
StartChar: arrowright
Encoding: 8594 8594 625
Width: 640
VWidth: 0
Flags: W
HStem: 329 80<48 442>
LayerCount: 2
Fore
SplineSet
362 139 m 1,0,-1
 307 194 l 1,1,-1
 442 329 l 1,2,-1
 48 329 l 1,3,-1
 48 409 l 1,4,-1
 442 409 l 1,5,-1
 307 544 l 1,6,-1
 362 599 l 1,7,-1
 592 369 l 1,8,-1
 362 139 l 1,0,-1
EndSplineSet
Validated: 19457
EndChar
StartChar: arrowdown
Encoding: 8595 8595 627
Width: 640
VWidth: 0
Flags: W
VStem: 278 84<197 636>
LayerCount: 2
Fore
SplineSet
550 275 m 1,0,-1
 320 45 l 1,1,-1
 90 275 l 1,2,-1
 145 330 l 1,3,-1
 278 197 l 1,4,-1
 278 636 l 1,5,-1
 362 636 l 1,6,-1
 362 197 l 1,7,-1
 495 330 l 1,8,-1
 550 275 l 1,0,-1
EndSplineSet
Validated: 19457
EndChar
StartChar: uni2196
Encoding: 8598 8598 630
Width: 640
VWidth: 0
Flags: W
HStem: 536 80<216 402>
VStem: 68 85<289 475>
LayerCount: 2
Fore
SplineSet
68 289 m 5,0,-1
 68 616 l 5,1,-1
 402 616 l 5,2,-1
 402 536 l 5,3,-1
 216 536 l 5,4,-1
 572 180 l 5,5,-1
 510 118 l 5,6,-1
 153 475 l 5,7,-1
 153 289 l 5,8,-1
 68 289 l 5,0,-1
EndSplineSet
Validated: 19457
EndChar
StartChar: uni2197
Encoding: 8599 8599 631
Width: 640
VWidth: 0
Flags: W
HStem: 536 80<238 424>
VStem: 487 85<289 475>
LayerCount: 2
Fore
SplineSet
572 289 m 5,0,-1
 487 289 l 5,1,-1
 487 475 l 5,2,-1
 130 118 l 5,3,-1
 68 180 l 5,4,-1
 424 536 l 5,5,-1
 238 536 l 5,6,-1
 238 616 l 5,7,-1
 572 616 l 5,8,-1
 572 289 l 5,0,-1
EndSplineSet
Validated: 19457
EndChar
StartChar: uni2198
Encoding: 8600 8600 632
Width: 640
VWidth: 0
Flags: W
HStem: 100 80<238 424>
VStem: 487 85<241 427>
LayerCount: 2
Fore
SplineSet
572 427 m 1,0,-1
 572 100 l 1,1,-1
 238 100 l 1,2,-1
 238 180 l 1,3,-1
 424 180 l 1,4,-1
 68 536 l 1,5,-1
 130 598 l 1,6,-1
 487 241 l 1,7,-1
 487 427 l 1,8,-1
 572 427 l 1,0,-1
EndSplineSet
Validated: 19457
EndChar
StartChar: uni2199
Encoding: 8601 8601 633
Width: 640
VWidth: 0
Flags: W
HStem: 100 80<216 402>
VStem: 68 85<241 427>
LayerCount: 2
Fore
SplineSet
68 427 m 1,0,-1
 153 427 l 1,1,-1
 153 241 l 1,2,-1
 510 598 l 1,3,-1
 572 536 l 1,4,-1
 216 180 l 1,5,-1
 402 180 l 1,6,-1
 402 100 l 1,7,-1
 68 100 l 1,8,-1
 68 427 l 1,0,-1
EndSplineSet
Validated: 19457
EndChar
